<?xml version="1.0" encoding="UTF-8" standalone="no"?>
<!-- Created with Inkscape (http://www.inkscape.org/) -->

<svg
   xmlns:ns0="http://www.iki.fi/pav/software/textext/"
   xmlns:dc="http://purl.org/dc/elements/1.1/"
   xmlns:cc="http://creativecommons.org/ns#"
   xmlns:rdf="http://www.w3.org/1999/02/22-rdf-syntax-ns#"
   xmlns:svg="http://www.w3.org/2000/svg"
   xmlns="http://www.w3.org/2000/svg"
   xmlns:xlink="http://www.w3.org/1999/xlink"
   xmlns:sodipodi="http://sodipodi.sourceforge.net/DTD/sodipodi-0.dtd"
   xmlns:inkscape="http://www.inkscape.org/namespaces/inkscape"
   width="354.33069"
   height="177.16534"
   id="svg2"
   version="1.1"
   inkscape:version="0.48.4 r9939"
   sodipodi:docname="fig6.svg">
  <sodipodi:namedview
     id="base"
     pagecolor="#ffffff"
     bordercolor="#666666"
     borderopacity="1.0"
     inkscape:pageopacity="0.0"
     inkscape:pageshadow="2"
     inkscape:zoom="2.6126185"
     inkscape:cx="174.29561"
     inkscape:cy="102.72621"
     inkscape:document-units="px"
     inkscape:current-layer="layer1"
     showgrid="false"
     units="cm"
     inkscape:window-width="1366"
     inkscape:window-height="744"
     inkscape:window-x="0"
     inkscape:window-y="24"
     inkscape:window-maximized="1"
     showguides="true"
     inkscape:guide-bbox="true" />
  <defs
     id="defs4">
    <marker
       inkscape:stockid="Arrow1Mstart"
       orient="auto"
       refY="0.0"
       refX="0.0"
       id="Arrow1Mstart"
       style="overflow:visible">
      <path
         id="path3889"
         d="M 0.0,0.0 L 5.0,-5.0 L -12.5,0.0 L 5.0,5.0 L 0.0,0.0 z "
         style="fill-rule:evenodd;stroke:#000000;stroke-width:1.0pt"
         transform="scale(0.4) translate(10,0)" />
    </marker>
    <marker
       style="overflow:visible;"
       id="Arrow1Mend"
       refX="0.0"
       refY="0.0"
       orient="auto"
       inkscape:stockid="Arrow1Mend">
      <path
         transform="scale(0.4) rotate(180) translate(10,0)"
         style="fill-rule:evenodd;stroke:#000000;stroke-width:1.0pt;"
         d="M 0.0,0.0 L 5.0,-5.0 L -12.5,0.0 L 5.0,5.0 L 0.0,0.0 z "
         id="path3892" />
    </marker>
  </defs>
  <metadata
     id="metadata7">
    <rdf:RDF>
      <cc:Work
         rdf:about="">
        <dc:format>image/svg+xml</dc:format>
        <dc:type
           rdf:resource="http://purl.org/dc/dcmitype/StillImage" />
        <dc:title />
      </cc:Work>
    </rdf:RDF>
  </metadata>
  <g
     transform="translate(0,-875.19552)"
     id="layer1"
     inkscape:groupmode="layer"
     inkscape:label="Layer 1">
    <g
       id="g4854"
       transform="translate(13.03464,871.56971)"
       ns0:preamble=""
       ns0:text="$\\overrightarrow{dS}$">
      <defs
         id="defs4856">
        <g
           id="g4858">
          <symbol
             id="symbol4860"
             overflow="visible"
             style="overflow:visible">
            <path
               id="path4862"
               d=""
               style="stroke:none"
               inkscape:connector-curvature="0" />
          </symbol>
          <symbol
             id="symbol4864"
             overflow="visible"
             style="overflow:visible">
            <path
               id="path4866"
               d="m 6.5625,-2.296875 c 0.171875,0 0.359375,0 0.359375,-0.203125 0,-0.1875 -0.1875,-0.1875 -0.359375,-0.1875 l -5.390625,0 c -0.171875,0 -0.34375,0 -0.34375,0.1875 0,0.203125 0.171875,0.203125 0.34375,0.203125 z m 0,0"
               style="stroke:none"
               inkscape:connector-curvature="0" />
          </symbol>
          <symbol
             id="symbol4868"
             overflow="visible"
             style="overflow:visible">
            <path
               id="path4870"
               d="M 8.3125,-2.296875 C 7.765625,-1.875 7.5,-1.46875 7.421875,-1.328125 c -0.453125,0.6875 -0.53125,1.3125 -0.53125,1.3125 0,0.125 0.125,0.125 0.203125,0.125 C 7.25,0.109375 7.265625,0.09375 7.3125,-0.09375 7.53125,-1.0625 8.125,-1.90625 9.25,-2.359375 9.375,-2.40625 9.40625,-2.421875 9.40625,-2.5 c 0,-0.0625 -0.0625,-0.09375 -0.078125,-0.109375 C 8.875,-2.765625 7.671875,-3.265625 7.296875,-4.9375 7.265625,-5.0625 7.25,-5.09375 7.09375,-5.09375 c -0.078125,0 -0.203125,0 -0.203125,0.125 0,0.015625 0.09375,0.640625 0.5,1.3125 0.203125,0.296875 0.5,0.640625 0.921875,0.96875 l -7.40625,0 c -0.171875,0 -0.359375,0 -0.359375,0.1875 0,0.203125 0.1875,0.203125 0.359375,0.203125 z m 0,0"
               style="stroke:none"
               inkscape:connector-curvature="0" />
          </symbol>
          <symbol
             id="symbol4872"
             overflow="visible"
             style="overflow:visible">
            <path
               id="path4874"
               d=""
               style="stroke:none"
               inkscape:connector-curvature="0" />
          </symbol>
          <symbol
             id="symbol4876"
             overflow="visible"
             style="overflow:visible">
            <path
               id="path4878"
               d="m 5.140625,-6.8125 c 0,0 0,-0.109375 -0.125,-0.109375 -0.15625,0 -1.09375,0.09375 -1.265625,0.109375 -0.078125,0.015625 -0.140625,0.0625 -0.140625,0.1875 0,0.125 0.09375,0.125 0.234375,0.125 0.484375,0 0.5,0.0625 0.5,0.171875 L 4.3125,-6.125 3.71875,-3.765625 C 3.53125,-4.140625 3.25,-4.40625 2.796875,-4.40625 c -1.15625,0 -2.390625,1.46875 -2.390625,2.921875 0,0.9375 0.546875,1.59375 1.3125,1.59375 0.203125,0 0.703125,-0.046875 1.296875,-0.75 0.078125,0.421875 0.4375,0.75 0.90625,0.75 0.359375,0 0.578125,-0.234375 0.75,-0.546875 0.15625,-0.359375 0.296875,-0.96875 0.296875,-0.984375 0,-0.109375 -0.09375,-0.109375 -0.125,-0.109375 -0.09375,0 -0.109375,0.046875 -0.140625,0.1875 -0.171875,0.640625 -0.34375,1.234375 -0.75,1.234375 -0.28125,0 -0.296875,-0.265625 -0.296875,-0.453125 0,-0.25 0.015625,-0.3125 0.046875,-0.484375 z m -2.0625,5.625 C 3.015625,-1 3.015625,-0.984375 2.875,-0.8125 2.4375,-0.265625 2.03125,-0.109375 1.75,-0.109375 c -0.5,0 -0.640625,-0.546875 -0.640625,-0.9375 0,-0.5 0.3125,-1.71875 0.546875,-2.1875 0.3125,-0.578125 0.75,-0.953125 1.15625,-0.953125 0.640625,0 0.78125,0.8125 0.78125,0.875 0,0.0625 -0.015625,0.125 -0.03125,0.171875 z m 0,0"
               style="stroke:none"
               inkscape:connector-curvature="0" />
          </symbol>
          <symbol
             id="symbol4880"
             overflow="visible"
             style="overflow:visible">
            <path
               id="path4882"
               d="m 6.4375,-6.921875 c 0,-0.03125 -0.03125,-0.109375 -0.125,-0.109375 -0.046875,0 -0.046875,0.015625 -0.171875,0.15625 L 5.65625,-6.3125 c -0.25,-0.46875 -0.765625,-0.71875 -1.421875,-0.71875 -1.265625,0 -2.453125,1.15625 -2.453125,2.359375 0,0.796875 0.515625,1.265625 1.03125,1.40625 l 1.0625,0.28125 c 0.375,0.09375 0.921875,0.25 0.921875,1.0625 0,0.890625 -0.8125,1.828125 -1.796875,1.828125 -0.640625,0 -1.75,-0.21875 -1.75,-1.453125 0,-0.234375 0.0625,-0.484375 0.0625,-0.53125 0.015625,-0.046875 0.015625,-0.0625 0.015625,-0.078125 0,-0.09375 -0.0625,-0.109375 -0.109375,-0.109375 -0.046875,0 -0.078125,0.015625 -0.109375,0.046875 -0.03125,0.03125 -0.59375,2.3125 -0.59375,2.34375 0,0.046875 0.046875,0.09375 0.109375,0.09375 0.046875,0 0.0625,-0.015625 0.1875,-0.15625 L 1.296875,-0.5 c 0.421875,0.578125 1.109375,0.71875 1.6875,0.71875 1.359375,0 2.53125,-1.328125 2.53125,-2.5625 0,-0.6875 -0.34375,-1.03125 -0.484375,-1.171875 C 4.796875,-3.734375 4.640625,-3.78125 3.765625,-4 3.53125,-4.0625 3.1875,-4.171875 3.09375,-4.1875 2.828125,-4.28125 2.484375,-4.5625 2.484375,-5.09375 c 0,-0.8125 0.796875,-1.65625 1.75,-1.65625 0.8125,0 1.421875,0.4375 1.421875,1.546875 0,0.3125 -0.03125,0.5 -0.03125,0.5625 0,0 0,0.09375 0.109375,0.09375 0.109375,0 0.125,-0.03125 0.15625,-0.203125 z m 0,0"
               style="stroke:none"
               inkscape:connector-curvature="0" />
          </symbol>
        </g>
      </defs>
      <g
         id="g4884">
        <g
           id="g4886"
           style="fill:#000000;fill-opacity:1">
          <use
             id="use4888"
             y="128.843"
             x="223.43201"
             xlink:href="#textext-b32f74b4-1"
             width="354.33069"
             height="177.16534" />
        </g>
        <g
           id="g4890"
           style="fill:#000000;fill-opacity:1">
          <use
             id="use4892"
             y="128.843"
             x="225.34283"
             xlink:href="#textext-b32f74b4-2"
             width="354.33069"
             height="177.16534" />
        </g>
        <g
           id="g4894"
           style="fill:#000000;fill-opacity:1">
          <use
             id="use4896"
             y="134.765"
             x="223.43201"
             xlink:href="#textext-b32f74b4-4"
             width="354.33069"
             height="177.16534" />
          <use
             id="use4898"
             y="134.765"
             x="228.61754"
             xlink:href="#textext-b32f74b4-5"
             width="354.33069"
             height="177.16534" />
        </g>
      </g>
    </g>
    <path
       sodipodi:nodetypes="cc"
       style="fill:none;stroke:#000000;stroke-width:1;stroke-linecap:butt;stroke-linejoin:miter;stroke-miterlimit:4;stroke-opacity:1;stroke-dasharray:4, 4;stroke-dashoffset:0;marker-end:none"
       d="m 162.65862,905.04971 0,112.10369"
       id="path8503"
       inkscape:connector-curvature="0" />
    <path
       style="fill:none;stroke:#000000;stroke-width:1.25;stroke-linecap:butt;stroke-linejoin:miter;stroke-opacity:1;stroke-miterlimit:4;stroke-dasharray:none"
       d="m 73.13426,940.12663 177.98237,0"
       id="path15470"
       inkscape:connector-curvature="0" />
    <path
       inkscape:connector-curvature="0"
       id="path15472"
       d="m 73.13426,972.12663 177.98237,0"
       style="fill:none;stroke:#000000;stroke-width:1.25;stroke-linecap:butt;stroke-linejoin:miter;stroke-opacity:1;stroke-miterlimit:4;stroke-dasharray:none" />
    <path
       style="fill:none;stroke:#000000;stroke-width:1px;stroke-linecap:butt;stroke-linejoin:miter;stroke-opacity:1;marker-start:url(#Arrow1Mstart);marker-end:url(#Arrow1Mend)"
       d="m 34.103353,939.83008 0,32.53441 25.64477,0"
       id="path15474"
       inkscape:connector-curvature="0" />
    <g
       transform="translate(-197.02553,806.60268)"
       ns0:text="$z$"
       ns0:preamble=""
       id="g15880">
      <defs
         id="defs15882">
        <g
           id="g15884">
          <symbol
             style="overflow:visible"
             overflow="visible"
             id="textext-7137bd72-0">
            <path
               inkscape:connector-curvature="0"
               style="stroke:none"
               d=""
               id="path15887" />
          </symbol>
          <symbol
             style="overflow:visible"
             overflow="visible"
             id="textext-7137bd72-1">
            <path
               inkscape:connector-curvature="0"
               style="stroke:none"
               d="m 1.328125,-0.828125 c 0.53125,-0.578125 0.828125,-0.828125 1.1875,-1.140625 0,0 0.609375,-0.53125 0.96875,-0.890625 C 4.4375,-3.78125 4.65625,-4.265625 4.65625,-4.3125 c 0,-0.09375 -0.09375,-0.09375 -0.109375,-0.09375 -0.078125,0 -0.09375,0.015625 -0.15625,0.109375 -0.296875,0.484375 -0.5,0.640625 -0.734375,0.640625 -0.25,0 -0.359375,-0.15625 -0.515625,-0.328125 -0.1875,-0.21875 -0.359375,-0.421875 -0.6875,-0.421875 -0.75,0 -1.203125,0.921875 -1.203125,1.140625 0,0.046875 0.03125,0.109375 0.109375,0.109375 0.09375,0 0.109375,-0.046875 0.140625,-0.109375 0.1875,-0.46875 0.765625,-0.46875 0.84375,-0.46875 0.203125,0 0.390625,0.0625 0.625,0.140625 0.40625,0.15625 0.515625,0.15625 0.765625,0.15625 -0.359375,0.421875 -1.1875,1.140625 -1.375,1.296875 l -0.90625,0.84375 C 0.78125,-0.625 0.421875,-0.0625 0.421875,0.015625 c 0,0.09375 0.109375,0.09375 0.125,0.09375 0.078125,0 0.09375,-0.015625 0.15625,-0.125 0.234375,-0.359375 0.53125,-0.625 0.859375,-0.625 0.21875,0 0.328125,0.09375 0.578125,0.375 0.15625,0.21875 0.34375,0.375 0.625,0.375 1,0 1.578125,-1.265625 1.578125,-1.53125 0,-0.046875 -0.046875,-0.109375 -0.125,-0.109375 -0.09375,0 -0.109375,0.0625 -0.140625,0.140625 C 3.84375,-0.75 3.203125,-0.5625 2.875,-0.5625 c -0.1875,0 -0.375,-0.0625 -0.578125,-0.125 -0.34375,-0.125 -0.5,-0.171875 -0.703125,-0.171875 -0.015625,0 -0.171875,0 -0.265625,0.03125 z m 0,0"
               id="path15890" />
          </symbol>
        </g>
      </defs>
      <g
         id="textext-7137bd72-2">
        <g
           style="fill:#000000;fill-opacity:1"
           id="g15893">
          <use
             height="177.16534"
             width="354.33069"
             xlink:href="#textext-7137bd72-1"
             x="223.43201"
             y="134.765"
             id="use15895" />
        </g>
      </g>
    </g>
    <g
       id="g16007"
       transform="translate(-159.76956,839.26391)"
       ns0:preamble=""
       ns0:text="$y$">
      <defs
         id="defs16009">
        <g
           id="g16011">
          <symbol
             id="textext-129d527c-0"
             overflow="visible"
             style="overflow:visible">
            <path
               id="path16014"
               d=""
               style="stroke:none"
               inkscape:connector-curvature="0" />
          </symbol>
          <symbol
             id="textext-129d527c-1"
             overflow="visible"
             style="overflow:visible">
            <path
               id="path16017"
               d="m 4.84375,-3.796875 c 0.046875,-0.140625 0.046875,-0.15625 0.046875,-0.234375 0,-0.171875 -0.140625,-0.265625 -0.296875,-0.265625 -0.09375,0 -0.25,0.0625 -0.34375,0.203125 -0.015625,0.0625 -0.109375,0.359375 -0.140625,0.546875 -0.078125,0.25 -0.140625,0.53125 -0.203125,0.796875 l -0.453125,1.796875 c -0.03125,0.140625 -0.46875,0.84375 -1.125,0.84375 -0.5,0 -0.609375,-0.4375 -0.609375,-0.8125 C 1.71875,-1.375 1.890625,-2 2.21875,-2.875 2.375,-3.28125 2.421875,-3.390625 2.421875,-3.59375 c 0,-0.4375 -0.3125,-0.8125 -0.8125,-0.8125 -0.953125,0 -1.3125,1.453125 -1.3125,1.53125 0,0.109375 0.09375,0.109375 0.109375,0.109375 0.109375,0 0.109375,-0.03125 0.15625,-0.1875 0.28125,-0.9375 0.671875,-1.234375 1.015625,-1.234375 0.078125,0 0.25,0 0.25,0.3125 0,0.25 -0.109375,0.515625 -0.171875,0.703125 -0.40625,1.0625 -0.578125,1.625 -0.578125,2.09375 0,0.890625 0.625,1.1875 1.21875,1.1875 0.390625,0 0.71875,-0.171875 1,-0.453125 -0.125,0.515625 -0.25,1.015625 -0.640625,1.546875 -0.265625,0.328125 -0.640625,0.625 -1.09375,0.625 -0.140625,0 -0.59375,-0.03125 -0.765625,-0.421875 0.15625,0 0.296875,0 0.421875,-0.125 C 1.328125,1.203125 1.421875,1.0625 1.421875,0.875 1.421875,0.5625 1.15625,0.53125 1.0625,0.53125 0.828125,0.53125 0.5,0.6875 0.5,1.171875 c 0,0.5 0.4375,0.875 1.0625,0.875 1.015625,0 2.046875,-0.90625 2.328125,-2.03125 z m 0,0"
               style="stroke:none"
               inkscape:connector-curvature="0" />
          </symbol>
        </g>
      </defs>
      <g
         id="textext-129d527c-2">
        <g
           id="g16020"
           style="fill:#000000;fill-opacity:1">
          <use
             id="use16022"
             y="134.765"
             x="223.43201"
             xlink:href="#textext-129d527c-1"
             width="354.33069"
             height="177.16534" />
        </g>
      </g>
    </g>
    <path
       inkscape:connector-curvature="0"
       id="path16078"
       d="m 136.65862,939.58965 0,65.12885"
       style="fill:none;stroke:#000000;stroke-width:1;stroke-linecap:butt;stroke-linejoin:miter;stroke-miterlimit:4;stroke-opacity:1;stroke-dasharray:4, 4;stroke-dashoffset:0;marker-end:none"
       sodipodi:nodetypes="cc" />
    <path
       style="fill:none;stroke:#000000;stroke-width:1px;stroke-linecap:butt;stroke-linejoin:miter;stroke-opacity:1;marker-end:none;marker-start:url(#Arrow1Mstart)"
       d="m 135.7953,97.388982 -13.9035,32.261508 -0.13498,-0.13499"
       id="path16080"
       inkscape:connector-curvature="0"
       transform="translate(0,875.19552)" />
    <path
       sodipodi:nodetypes="cc"
       style="fill:none;stroke:#000000;stroke-width:1;stroke-linecap:butt;stroke-linejoin:miter;stroke-miterlimit:4;stroke-opacity:1;stroke-dasharray:4, 4;stroke-dashoffset:0;marker-end:none"
       d="m 166.17903,1004.7958 -44.47609,0"
       id="path16634"
       inkscape:connector-curvature="0" />
    <path
       style="fill:none;stroke:#000000;stroke-width:1px;stroke-linecap:butt;stroke-linejoin:miter;stroke-opacity:1"
       d="m 124.22698,124.90697 c 2.76914,1.25975 2.43658,3.01577 2.09988,4.77246"
       id="path16636"
       inkscape:connector-curvature="0"
       transform="translate(0,875.19552)"
       sodipodi:nodetypes="cc" />
    <path
       style="fill:none;stroke:#000000;stroke-width:1px;stroke-linecap:butt;stroke-linejoin:miter;stroke-opacity:1;marker-start:none;marker-end:url(#Arrow1Mend)"
       d="M 135.7953,96.984026 161.98246,64.857505"
       id="path16638"
       inkscape:connector-curvature="0"
       transform="translate(0,875.19552)" />
    <path
       style="fill:none;stroke:#000000;stroke-width:1;stroke-linecap:butt;stroke-linejoin:miter;stroke-opacity:1;marker-end:url(#Arrow1Mend);stroke-miterlimit:4;stroke-dasharray:none"
       d="M 162.93158,939.82639 189.4608,921.11158"
       id="path17008"
       inkscape:connector-curvature="0"
       sodipodi:nodetypes="cc" />
    <path
       style="fill:none;stroke:#000000;stroke-width:1px;stroke-linecap:butt;stroke-linejoin:miter;stroke-opacity:1"
       d="m 169.86795,935.33606 c 1.64501,1.18976 1.74709,3.05415 0.84695,4.62568"
       id="path17194"
       inkscape:connector-curvature="0"
       sodipodi:nodetypes="cc" />
    <path
       style="fill:none;stroke:#000000;stroke-width:1px;stroke-linecap:butt;stroke-linejoin:miter;stroke-opacity:1"
       d="m 139.6227,92.234966 c 2.77151,1.547033 2.12095,3.340901 1.74227,4.645612"
       id="path17196"
       inkscape:connector-curvature="0"
       transform="translate(0,875.19552)"
       sodipodi:nodetypes="cc" />
    <text
       xml:space="preserve"
       style="font-size:11px;font-style:normal;font-variant:normal;font-weight:normal;font-stretch:normal;line-height:125%;letter-spacing:0px;word-spacing:0px;fill:#000000;fill-opacity:1;stroke:none;font-family:Nimbus Roman No9 L;-inkscape-font-specification:Nimbus Roman No9 L"
       x="208.95737"
       y="44.879669"
       id="text17198"
       sodipodi:linespacing="125%"
       transform="translate(0,875.19552)"><tspan
         sodipodi:role="line"
         id="tspan17200"
         x="208.95737"
         y="44.879669">Region 3 :</tspan></text>
    <text
       sodipodi:linespacing="125%"
       id="text17202"
       y="958.99536"
       x="208.95737"
       style="font-size:11px;font-style:normal;font-variant:normal;font-weight:normal;font-stretch:normal;line-height:125%;letter-spacing:0px;word-spacing:0px;fill:#000000;fill-opacity:1;stroke:none;font-family:Nimbus Roman No9 L;-inkscape-font-specification:Nimbus Roman No9 L"
       xml:space="preserve"><tspan
         y="958.99536"
         x="208.95737"
         id="tspan17204"
         sodipodi:role="line">Region 2 :</tspan></text>
    <g
       transform="translate(35.213713,784.27064)"
       ns0:text="$\\epsilon_{r_{3}}=3.0$"
       ns0:preamble=""
       id="g17274">
      <defs
         id="defs17276">
        <g
           id="g17278">
          <symbol
             style="overflow:visible"
             overflow="visible"
             id="textext-e5a9d10c-0">
            <path
               inkscape:connector-curvature="0"
               style="stroke:none"
               d=""
               id="path17281" />
          </symbol>
          <symbol
             style="overflow:visible"
             overflow="visible"
             id="textext-e5a9d10c-1">
            <path
               inkscape:connector-curvature="0"
               style="stroke:none"
               d="m 2.96875,-2.25 c 0.15625,0 0.34375,0 0.34375,-0.171875 0,-0.140625 -0.125,-0.140625 -0.296875,-0.140625 l -1.609375,0 c 0.234375,-0.84375 0.796875,-1.421875 1.703125,-1.421875 l 0.3125,0 c 0.171875,0 0.328125,0 0.328125,-0.171875 0,-0.140625 -0.125,-0.140625 -0.296875,-0.140625 l -0.359375,0 c -1.296875,0 -2.625,1 -2.625,2.515625 0,1.109375 0.75,1.890625 1.796875,1.890625 0.65625,0 1.296875,-0.40625 1.296875,-0.515625 0,-0.015625 0,-0.125 -0.09375,-0.125 -0.015625,0 -0.046875,0 -0.125,0.046875 -0.3125,0.203125 -0.6875,0.375 -1.046875,0.375 -0.578125,0 -1.078125,-0.421875 -1.078125,-1.296875 0,-0.34375 0.078125,-0.734375 0.109375,-0.84375 z m 0,0"
               id="path17284" />
          </symbol>
          <symbol
             style="overflow:visible"
             overflow="visible"
             id="textext-e5a9d10c-2">
            <path
               inkscape:connector-curvature="0"
               style="stroke:none"
               d="m 1.90625,-0.53125 c 0,-0.28125 -0.234375,-0.53125 -0.515625,-0.53125 -0.296875,0 -0.53125,0.25 -0.53125,0.53125 C 0.859375,-0.234375 1.09375,0 1.390625,0 1.671875,0 1.90625,-0.234375 1.90625,-0.53125 z m 0,0"
               id="path17287" />
          </symbol>
          <symbol
             style="overflow:visible"
             overflow="visible"
             id="textext-e5a9d10c-3">
            <path
               inkscape:connector-curvature="0"
               style="stroke:none"
               d=""
               id="path17290" />
          </symbol>
          <symbol
             style="overflow:visible"
             overflow="visible"
             id="textext-e5a9d10c-4">
            <path
               inkscape:connector-curvature="0"
               style="stroke:none"
               d="m 1.640625,-1.40625 c 0,-0.046875 0.171875,-0.671875 0.171875,-0.703125 0.015625,-0.0625 0.21875,-0.40625 0.453125,-0.578125 0.0625,-0.046875 0.25,-0.1875 0.5625,-0.1875 0.0625,0 0.234375,0 0.375,0.09375 -0.21875,0.0625 -0.296875,0.265625 -0.296875,0.390625 0,0.140625 0.109375,0.25 0.265625,0.25 0.171875,0 0.390625,-0.125 0.390625,-0.421875 0,-0.359375 -0.375,-0.515625 -0.734375,-0.515625 -0.359375,0 -0.671875,0.15625 -0.984375,0.5 -0.125,-0.421875 -0.546875,-0.5 -0.71875,-0.5 -0.25,0 -0.421875,0.171875 -0.546875,0.359375 -0.15625,0.265625 -0.25,0.671875 -0.25,0.71875 0,0.078125 0.09375,0.078125 0.125,0.078125 0.09375,0 0.09375,-0.015625 0.140625,-0.203125 0.109375,-0.421875 0.25,-0.75 0.515625,-0.75 0.1875,0 0.234375,0.15625 0.234375,0.34375 0,0.125 -0.0625,0.390625 -0.125,0.578125 -0.046875,0.1875 -0.109375,0.46875 -0.140625,0.625 L 0.84375,-0.4375 C 0.828125,-0.34375 0.78125,-0.171875 0.78125,-0.15625 0.78125,0 0.90625,0.0625 1.015625,0.0625 1.125,0.0625 1.265625,0 1.3125,-0.125 1.328125,-0.171875 1.40625,-0.484375 1.453125,-0.65625 z m 0,0"
               id="path17293" />
          </symbol>
          <symbol
             style="overflow:visible"
             overflow="visible"
             id="textext-e5a9d10c-5">
            <path
               inkscape:connector-curvature="0"
               style="stroke:none"
               d=""
               id="path17296" />
          </symbol>
          <symbol
             style="overflow:visible"
             overflow="visible"
             id="textext-e5a9d10c-6">
            <path
               inkscape:connector-curvature="0"
               style="stroke:none"
               d="m 1.640625,-1.65625 c 0.46875,0 0.765625,0.296875 0.765625,0.78125 0,0.515625 -0.3125,0.78125 -0.75,0.78125 -0.0625,0 -0.65625,0 -0.90625,-0.265625 0.203125,-0.03125 0.265625,-0.171875 0.265625,-0.296875 0,-0.1875 -0.140625,-0.3125 -0.3125,-0.3125 -0.15625,0 -0.296875,0.109375 -0.296875,0.328125 0,0.515625 0.578125,0.75 1.265625,0.75 0.8125,0 1.3125,-0.5 1.3125,-0.984375 0,-0.40625 -0.359375,-0.75 -0.921875,-0.875 0.59375,-0.203125 0.75,-0.578125 0.75,-0.859375 0,-0.40625 -0.5,-0.703125 -1.125,-0.703125 -0.625,0 -1.109375,0.25 -1.109375,0.703125 0,0.234375 0.1875,0.296875 0.28125,0.296875 0.140625,0 0.28125,-0.109375 0.28125,-0.296875 0,-0.109375 -0.0625,-0.25 -0.234375,-0.28125 C 1.109375,-3.109375 1.5625,-3.125 1.671875,-3.125 c 0.359375,0 0.609375,0.171875 0.609375,0.515625 0,0.296875 -0.1875,0.75 -0.703125,0.78125 -0.140625,0 -0.15625,0 -0.296875,0.015625 -0.046875,0 -0.109375,0 -0.109375,0.078125 0,0.078125 0.046875,0.078125 0.140625,0.078125 z m 0,0"
               id="path17299" />
          </symbol>
          <symbol
             style="overflow:visible"
             overflow="visible"
             id="textext-e5a9d10c-7">
            <path
               inkscape:connector-curvature="0"
               style="stroke:none"
               d=""
               id="path17302" />
          </symbol>
          <symbol
             style="overflow:visible"
             overflow="visible"
             id="textext-e5a9d10c-8">
            <path
               inkscape:connector-curvature="0"
               style="stroke:none"
               d="m 6.84375,-3.265625 c 0.15625,0 0.34375,0 0.34375,-0.1875 C 7.1875,-3.65625 7,-3.65625 6.859375,-3.65625 l -5.96875,0 c -0.140625,0 -0.328125,0 -0.328125,0.203125 0,0.1875 0.1875,0.1875 0.328125,0.1875 z m 0.015625,1.9375 c 0.140625,0 0.328125,0 0.328125,-0.203125 0,-0.1875 -0.1875,-0.1875 -0.34375,-0.1875 l -5.953125,0 c -0.140625,0 -0.328125,0 -0.328125,0.1875 0,0.203125 0.1875,0.203125 0.328125,0.203125 z m 0,0"
               id="path17305" />
          </symbol>
          <symbol
             style="overflow:visible"
             overflow="visible"
             id="textext-e5a9d10c-9">
            <path
               inkscape:connector-curvature="0"
               style="stroke:none"
               d="m 2.890625,-3.515625 c 0.8125,-0.265625 1.390625,-0.953125 1.390625,-1.75 0,-0.8125 -0.875,-1.375 -1.828125,-1.375 -1,0 -1.765625,0.59375 -1.765625,1.359375 0,0.328125 0.21875,0.515625 0.515625,0.515625 0.296875,0 0.5,-0.21875 0.5,-0.515625 0,-0.484375 -0.46875,-0.484375 -0.609375,-0.484375 0.296875,-0.5 0.953125,-0.625 1.3125,-0.625 0.421875,0 0.96875,0.21875 0.96875,1.109375 0,0.125 -0.03125,0.703125 -0.28125,1.140625 C 2.796875,-3.65625 2.453125,-3.625 2.203125,-3.625 2.125,-3.609375 1.890625,-3.59375 1.8125,-3.59375 c -0.078125,0.015625 -0.140625,0.03125 -0.140625,0.125 0,0.109375 0.0625,0.109375 0.234375,0.109375 l 0.4375,0 c 0.8125,0 1.1875,0.671875 1.1875,1.65625 0,1.359375 -0.6875,1.640625 -1.125,1.640625 -0.4375,0 -1.1875,-0.171875 -1.53125,-0.75 0.34375,0.046875 0.65625,-0.171875 0.65625,-0.546875 0,-0.359375 -0.265625,-0.5625 -0.546875,-0.5625 -0.25,0 -0.5625,0.140625 -0.5625,0.578125 0,0.90625 0.921875,1.5625 2.015625,1.5625 1.21875,0 2.125,-0.90625 2.125,-1.921875 0,-0.8125 -0.640625,-1.59375 -1.671875,-1.8125 z m 0,0"
               id="path17308" />
          </symbol>
          <symbol
             style="overflow:visible"
             overflow="visible"
             id="textext-e5a9d10c-10">
            <path
               inkscape:connector-curvature="0"
               style="stroke:none"
               d="m 4.578125,-3.1875 c 0,-0.796875 -0.046875,-1.59375 -0.390625,-2.328125 -0.453125,-0.96875 -1.28125,-1.125 -1.6875,-1.125 -0.609375,0 -1.328125,0.265625 -1.75,1.1875 -0.3125,0.6875 -0.359375,1.46875 -0.359375,2.265625 0,0.75 0.03125,1.640625 0.453125,2.40625 0.421875,0.796875 1.15625,1 1.640625,1 0.53125,0 1.296875,-0.203125 1.734375,-1.15625 0.3125,-0.6875 0.359375,-1.46875 0.359375,-2.25 z M 2.484375,0 C 2.09375,0 1.5,-0.25 1.328125,-1.203125 1.21875,-1.796875 1.21875,-2.71875 1.21875,-3.3125 c 0,-0.640625 0,-1.296875 0.078125,-1.828125 0.1875,-1.1875 0.9375,-1.28125 1.1875,-1.28125 0.328125,0 0.984375,0.1875 1.171875,1.171875 0.109375,0.5625 0.109375,1.3125 0.109375,1.9375 0,0.75 0,1.421875 -0.109375,2.0625 C 3.5,-0.296875 2.9375,0 2.484375,0 z m 0,0"
               id="path17311" />
          </symbol>
        </g>
      </defs>
      <g
         id="textext-e5a9d10c-11">
        <g
           style="fill:#000000;fill-opacity:1"
           id="g17314">
          <use
             height="177.16534"
             width="354.33069"
             xlink:href="#textext-e5a9d10c-1"
             x="223.43201"
             y="134.765"
             id="use17316" />
        </g>
        <g
           style="fill:#000000;fill-opacity:1"
           id="g17318">
          <use
             height="177.16534"
             width="354.33069"
             xlink:href="#textext-e5a9d10c-4"
             x="227.476"
             y="136.259"
             id="use17320" />
        </g>
        <g
           style="fill:#000000;fill-opacity:1"
           id="g17322">
          <use
             height="177.16534"
             width="354.33069"
             xlink:href="#textext-e5a9d10c-6"
             x="231.175"
             y="137.256"
             id="use17324" />
        </g>
        <g
           style="fill:#000000;fill-opacity:1"
           id="g17326">
          <use
             height="177.16534"
             width="354.33069"
             xlink:href="#textext-e5a9d10c-8"
             x="238.32899"
             y="134.765"
             id="use17328" />
        </g>
        <g
           style="fill:#000000;fill-opacity:1"
           id="g17330">
          <use
             height="177.16534"
             width="354.33069"
             xlink:href="#textext-e5a9d10c-9"
             x="248.84752"
             y="134.765"
             id="use17332" />
        </g>
        <g
           style="fill:#000000;fill-opacity:1"
           id="g17334">
          <use
             height="177.16534"
             width="354.33069"
             xlink:href="#textext-e5a9d10c-2"
             x="253.826"
             y="134.765"
             id="use17336" />
        </g>
        <g
           style="fill:#000000;fill-opacity:1"
           id="g17338">
          <use
             height="177.16534"
             width="354.33069"
             xlink:href="#textext-e5a9d10c-10"
             x="256.59399"
             y="134.765"
             id="use17340" />
        </g>
      </g>
    </g>
    <g
       id="g17636"
       transform="translate(35.213713,823.03616)"
       ns0:preamble=""
       ns0:text="$\\epsilon_{r_{2}}=2.5$">
      <defs
         id="defs17638">
        <g
           id="g17640">
          <symbol
             id="textext-d9b73827-0"
             overflow="visible">
            <path
               id="path17643"
               d=""
               style="stroke:none;" />
          </symbol>
          <symbol
             id="textext-d9b73827-1"
             overflow="visible">
            <path
               id="path17646"
               d="M 2.96875 -2.25 C 3.125 -2.25 3.3125 -2.25 3.3125 -2.421875 C 3.3125 -2.5625 3.1875 -2.5625 3.015625 -2.5625 L 1.40625 -2.5625 C 1.640625 -3.40625 2.203125 -3.984375 3.109375 -3.984375 L 3.421875 -3.984375 C 3.59375 -3.984375 3.75 -3.984375 3.75 -4.15625 C 3.75 -4.296875 3.625 -4.296875 3.453125 -4.296875 L 3.09375 -4.296875 C 1.796875 -4.296875 0.46875 -3.296875 0.46875 -1.78125 C 0.46875 -0.671875 1.21875 0.109375 2.265625 0.109375 C 2.921875 0.109375 3.5625 -0.296875 3.5625 -0.40625 C 3.5625 -0.421875 3.5625 -0.53125 3.46875 -0.53125 C 3.453125 -0.53125 3.421875 -0.53125 3.34375 -0.484375 C 3.03125 -0.28125 2.65625 -0.109375 2.296875 -0.109375 C 1.71875 -0.109375 1.21875 -0.53125 1.21875 -1.40625 C 1.21875 -1.75 1.296875 -2.140625 1.328125 -2.25 Z M 2.96875 -2.25 "
               style="stroke:none;" />
          </symbol>
          <symbol
             id="textext-d9b73827-2"
             overflow="visible">
            <path
               id="path17649"
               d="M 1.90625 -0.53125 C 1.90625 -0.8125 1.671875 -1.0625 1.390625 -1.0625 C 1.09375 -1.0625 0.859375 -0.8125 0.859375 -0.53125 C 0.859375 -0.234375 1.09375 0 1.390625 0 C 1.671875 0 1.90625 -0.234375 1.90625 -0.53125 Z M 1.90625 -0.53125 "
               style="stroke:none;" />
          </symbol>
          <symbol
             id="textext-d9b73827-3"
             overflow="visible">
            <path
               id="path17652"
               d=""
               style="stroke:none;" />
          </symbol>
          <symbol
             id="textext-d9b73827-4"
             overflow="visible">
            <path
               id="path17655"
               d="M 1.640625 -1.40625 C 1.640625 -1.453125 1.8125 -2.078125 1.8125 -2.109375 C 1.828125 -2.171875 2.03125 -2.515625 2.265625 -2.6875 C 2.328125 -2.734375 2.515625 -2.875 2.828125 -2.875 C 2.890625 -2.875 3.0625 -2.875 3.203125 -2.78125 C 2.984375 -2.71875 2.90625 -2.515625 2.90625 -2.390625 C 2.90625 -2.25 3.015625 -2.140625 3.171875 -2.140625 C 3.34375 -2.140625 3.5625 -2.265625 3.5625 -2.5625 C 3.5625 -2.921875 3.1875 -3.078125 2.828125 -3.078125 C 2.46875 -3.078125 2.15625 -2.921875 1.84375 -2.578125 C 1.71875 -3 1.296875 -3.078125 1.125 -3.078125 C 0.875 -3.078125 0.703125 -2.90625 0.578125 -2.71875 C 0.421875 -2.453125 0.328125 -2.046875 0.328125 -2 C 0.328125 -1.921875 0.421875 -1.921875 0.453125 -1.921875 C 0.546875 -1.921875 0.546875 -1.9375 0.59375 -2.125 C 0.703125 -2.546875 0.84375 -2.875 1.109375 -2.875 C 1.296875 -2.875 1.34375 -2.71875 1.34375 -2.53125 C 1.34375 -2.40625 1.28125 -2.140625 1.21875 -1.953125 C 1.171875 -1.765625 1.109375 -1.484375 1.078125 -1.328125 L 0.84375 -0.4375 C 0.828125 -0.34375 0.78125 -0.171875 0.78125 -0.15625 C 0.78125 0 0.90625 0.0625 1.015625 0.0625 C 1.125 0.0625 1.265625 0 1.3125 -0.125 C 1.328125 -0.171875 1.40625 -0.484375 1.453125 -0.65625 Z M 1.640625 -1.40625 "
               style="stroke:none;" />
          </symbol>
          <symbol
             id="textext-d9b73827-5"
             overflow="visible">
            <path
               id="path17658"
               d=""
               style="stroke:none;" />
          </symbol>
          <symbol
             id="textext-d9b73827-6"
             overflow="visible">
            <path
               id="path17661"
               d="M 2.9375 -0.96875 L 2.71875 -0.96875 C 2.71875 -0.875 2.65625 -0.5625 2.578125 -0.515625 C 2.546875 -0.484375 2.125 -0.484375 2.046875 -0.484375 L 1.078125 -0.484375 C 1.40625 -0.71875 1.765625 -1 2.0625 -1.203125 C 2.515625 -1.515625 2.9375 -1.796875 2.9375 -2.328125 C 2.9375 -2.96875 2.328125 -3.3125 1.625 -3.3125 C 0.953125 -3.3125 0.453125 -2.9375 0.453125 -2.4375 C 0.453125 -2.1875 0.671875 -2.140625 0.75 -2.140625 C 0.875 -2.140625 1.03125 -2.234375 1.03125 -2.4375 C 1.03125 -2.609375 0.90625 -2.71875 0.75 -2.71875 C 0.890625 -2.953125 1.1875 -3.09375 1.515625 -3.09375 C 2 -3.09375 2.40625 -2.8125 2.40625 -2.328125 C 2.40625 -1.90625 2.109375 -1.578125 1.734375 -1.265625 L 0.515625 -0.234375 C 0.46875 -0.1875 0.453125 -0.1875 0.453125 -0.15625 L 0.453125 0 L 2.765625 0 Z M 2.9375 -0.96875 "
               style="stroke:none;" />
          </symbol>
          <symbol
             id="textext-d9b73827-7"
             overflow="visible">
            <path
               id="path17664"
               d=""
               style="stroke:none;" />
          </symbol>
          <symbol
             id="textext-d9b73827-8"
             overflow="visible">
            <path
               id="path17667"
               d="M 6.84375 -3.265625 C 7 -3.265625 7.1875 -3.265625 7.1875 -3.453125 C 7.1875 -3.65625 7 -3.65625 6.859375 -3.65625 L 0.890625 -3.65625 C 0.75 -3.65625 0.5625 -3.65625 0.5625 -3.453125 C 0.5625 -3.265625 0.75 -3.265625 0.890625 -3.265625 Z M 6.859375 -1.328125 C 7 -1.328125 7.1875 -1.328125 7.1875 -1.53125 C 7.1875 -1.71875 7 -1.71875 6.84375 -1.71875 L 0.890625 -1.71875 C 0.75 -1.71875 0.5625 -1.71875 0.5625 -1.53125 C 0.5625 -1.328125 0.75 -1.328125 0.890625 -1.328125 Z M 6.859375 -1.328125 "
               style="stroke:none;" />
          </symbol>
          <symbol
             id="textext-d9b73827-9"
             overflow="visible">
            <path
               id="path17670"
               d="M 1.265625 -0.765625 L 2.328125 -1.796875 C 3.875 -3.171875 4.46875 -3.703125 4.46875 -4.703125 C 4.46875 -5.84375 3.578125 -6.640625 2.359375 -6.640625 C 1.234375 -6.640625 0.5 -5.71875 0.5 -4.828125 C 0.5 -4.28125 1 -4.28125 1.03125 -4.28125 C 1.203125 -4.28125 1.546875 -4.390625 1.546875 -4.8125 C 1.546875 -5.0625 1.359375 -5.328125 1.015625 -5.328125 C 0.9375 -5.328125 0.921875 -5.328125 0.890625 -5.3125 C 1.109375 -5.96875 1.65625 -6.328125 2.234375 -6.328125 C 3.140625 -6.328125 3.5625 -5.515625 3.5625 -4.703125 C 3.5625 -3.90625 3.078125 -3.125 2.515625 -2.5 L 0.609375 -0.375 C 0.5 -0.265625 0.5 -0.234375 0.5 0 L 4.203125 0 L 4.46875 -1.734375 L 4.234375 -1.734375 C 4.171875 -1.4375 4.109375 -1 4 -0.84375 C 3.9375 -0.765625 3.28125 -0.765625 3.0625 -0.765625 Z M 1.265625 -0.765625 "
               style="stroke:none;" />
          </symbol>
          <symbol
             id="textext-d9b73827-10"
             overflow="visible">
            <path
               id="path17673"
               d="M 4.46875 -2 C 4.46875 -3.1875 3.65625 -4.1875 2.578125 -4.1875 C 2.109375 -4.1875 1.671875 -4.03125 1.3125 -3.671875 L 1.3125 -5.625 C 1.515625 -5.5625 1.84375 -5.5 2.15625 -5.5 C 3.390625 -5.5 4.09375 -6.40625 4.09375 -6.53125 C 4.09375 -6.59375 4.0625 -6.640625 3.984375 -6.640625 C 3.984375 -6.640625 3.953125 -6.640625 3.90625 -6.609375 C 3.703125 -6.515625 3.21875 -6.3125 2.546875 -6.3125 C 2.15625 -6.3125 1.6875 -6.390625 1.21875 -6.59375 C 1.140625 -6.625 1.125 -6.625 1.109375 -6.625 C 1 -6.625 1 -6.546875 1 -6.390625 L 1 -3.4375 C 1 -3.265625 1 -3.1875 1.140625 -3.1875 C 1.21875 -3.1875 1.234375 -3.203125 1.28125 -3.265625 C 1.390625 -3.421875 1.75 -3.96875 2.5625 -3.96875 C 3.078125 -3.96875 3.328125 -3.515625 3.40625 -3.328125 C 3.5625 -2.953125 3.59375 -2.578125 3.59375 -2.078125 C 3.59375 -1.71875 3.59375 -1.125 3.34375 -0.703125 C 3.109375 -0.3125 2.734375 -0.0625 2.28125 -0.0625 C 1.5625 -0.0625 0.984375 -0.59375 0.8125 -1.171875 C 0.84375 -1.171875 0.875 -1.15625 0.984375 -1.15625 C 1.3125 -1.15625 1.484375 -1.40625 1.484375 -1.640625 C 1.484375 -1.890625 1.3125 -2.140625 0.984375 -2.140625 C 0.84375 -2.140625 0.5 -2.0625 0.5 -1.609375 C 0.5 -0.75 1.1875 0.21875 2.296875 0.21875 C 3.453125 0.21875 4.46875 -0.734375 4.46875 -2 Z M 4.46875 -2 "
               style="stroke:none;" />
          </symbol>
        </g>
      </defs>
      <g
         id="textext-d9b73827-11">
        <g
           id="g17676"
           style="fill:rgb(0%,0%,0%);fill-opacity:1;">
          <use
             id="use17678"
             y="134.765"
             x="223.432"
             xlink:href="#textext-d9b73827-1" />
        </g>
        <g
           id="g17680"
           style="fill:rgb(0%,0%,0%);fill-opacity:1;">
          <use
             id="use17682"
             y="136.259"
             x="227.476"
             xlink:href="#textext-d9b73827-4" />
        </g>
        <g
           id="g17684"
           style="fill:rgb(0%,0%,0%);fill-opacity:1;">
          <use
             id="use17686"
             y="137.256"
             x="231.175"
             xlink:href="#textext-d9b73827-6" />
        </g>
        <g
           id="g17688"
           style="fill:rgb(0%,0%,0%);fill-opacity:1;">
          <use
             id="use17690"
             y="134.765"
             x="238.329"
             xlink:href="#textext-d9b73827-8" />
        </g>
        <g
           id="g17692"
           style="fill:rgb(0%,0%,0%);fill-opacity:1;">
          <use
             id="use17694"
             y="134.765"
             x="248.847513"
             xlink:href="#textext-d9b73827-9" />
        </g>
        <g
           id="g17696"
           style="fill:rgb(0%,0%,0%);fill-opacity:1;">
          <use
             id="use17698"
             y="134.765"
             x="253.826"
             xlink:href="#textext-d9b73827-2" />
        </g>
        <g
           id="g17700"
           style="fill:rgb(0%,0%,0%);fill-opacity:1;">
          <use
             id="use17702"
             y="134.765"
             x="256.594"
             xlink:href="#textext-d9b73827-10" />
        </g>
      </g>
    </g>
    <g
       transform="translate(30.662952,808.31018)"
       ns0:text="$z=1$"
       ns0:preamble=""
       id="g17998">
      <defs
         id="defs18000">
        <g
           id="g18002">
          <symbol
             style="overflow:visible"
             overflow="visible"
             id="textext-51599240-0">
            <path
               inkscape:connector-curvature="0"
               style="stroke:none"
               d=""
               id="path18005" />
          </symbol>
          <symbol
             style="overflow:visible"
             overflow="visible"
             id="textext-51599240-1">
            <path
               inkscape:connector-curvature="0"
               style="stroke:none"
               d="m 1.328125,-0.828125 c 0.53125,-0.578125 0.828125,-0.828125 1.1875,-1.140625 0,0 0.609375,-0.53125 0.96875,-0.890625 C 4.4375,-3.78125 4.65625,-4.265625 4.65625,-4.3125 c 0,-0.09375 -0.09375,-0.09375 -0.109375,-0.09375 -0.078125,0 -0.09375,0.015625 -0.15625,0.109375 -0.296875,0.484375 -0.5,0.640625 -0.734375,0.640625 -0.25,0 -0.359375,-0.15625 -0.515625,-0.328125 -0.1875,-0.21875 -0.359375,-0.421875 -0.6875,-0.421875 -0.75,0 -1.203125,0.921875 -1.203125,1.140625 0,0.046875 0.03125,0.109375 0.109375,0.109375 0.09375,0 0.109375,-0.046875 0.140625,-0.109375 0.1875,-0.46875 0.765625,-0.46875 0.84375,-0.46875 0.203125,0 0.390625,0.0625 0.625,0.140625 0.40625,0.15625 0.515625,0.15625 0.765625,0.15625 -0.359375,0.421875 -1.1875,1.140625 -1.375,1.296875 l -0.90625,0.84375 C 0.78125,-0.625 0.421875,-0.0625 0.421875,0.015625 c 0,0.09375 0.109375,0.09375 0.125,0.09375 0.078125,0 0.09375,-0.015625 0.15625,-0.125 0.234375,-0.359375 0.53125,-0.625 0.859375,-0.625 0.21875,0 0.328125,0.09375 0.578125,0.375 0.15625,0.21875 0.34375,0.375 0.625,0.375 1,0 1.578125,-1.265625 1.578125,-1.53125 0,-0.046875 -0.046875,-0.109375 -0.125,-0.109375 -0.09375,0 -0.109375,0.0625 -0.140625,0.140625 C 3.84375,-0.75 3.203125,-0.5625 2.875,-0.5625 c -0.1875,0 -0.375,-0.0625 -0.578125,-0.125 -0.34375,-0.125 -0.5,-0.171875 -0.703125,-0.171875 -0.015625,0 -0.171875,0 -0.265625,0.03125 z m 0,0"
               id="path18008" />
          </symbol>
          <symbol
             style="overflow:visible"
             overflow="visible"
             id="textext-51599240-2">
            <path
               inkscape:connector-curvature="0"
               style="stroke:none"
               d=""
               id="path18011" />
          </symbol>
          <symbol
             style="overflow:visible"
             overflow="visible"
             id="textext-51599240-3">
            <path
               inkscape:connector-curvature="0"
               style="stroke:none"
               d="m 6.84375,-3.265625 c 0.15625,0 0.34375,0 0.34375,-0.1875 C 7.1875,-3.65625 7,-3.65625 6.859375,-3.65625 l -5.96875,0 c -0.140625,0 -0.328125,0 -0.328125,0.203125 0,0.1875 0.1875,0.1875 0.328125,0.1875 z m 0.015625,1.9375 c 0.140625,0 0.328125,0 0.328125,-0.203125 0,-0.1875 -0.1875,-0.1875 -0.34375,-0.1875 l -5.953125,0 c -0.140625,0 -0.328125,0 -0.328125,0.1875 0,0.203125 0.1875,0.203125 0.328125,0.203125 z m 0,0"
               id="path18014" />
          </symbol>
          <symbol
             style="overflow:visible"
             overflow="visible"
             id="textext-51599240-4">
            <path
               inkscape:connector-curvature="0"
               style="stroke:none"
               d="m 2.9375,-6.375 c 0,-0.25 0,-0.265625 -0.234375,-0.265625 C 2.078125,-6 1.203125,-6 0.890625,-6 l 0,0.3125 c 0.203125,0 0.78125,0 1.296875,-0.265625 l 0,5.171875 c 0,0.359375 -0.03125,0.46875 -0.921875,0.46875 l -0.3125,0 0,0.3125 c 0.34375,-0.03125 1.203125,-0.03125 1.609375,-0.03125 0.390625,0 1.265625,0 1.609375,0.03125 l 0,-0.3125 -0.3125,0 c -0.90625,0 -0.921875,-0.109375 -0.921875,-0.46875 z m 0,0"
               id="path18017" />
          </symbol>
        </g>
      </defs>
      <g
         id="textext-51599240-5">
        <g
           style="fill:#000000;fill-opacity:1"
           id="g18020">
          <use
             height="177.16534"
             width="354.33069"
             xlink:href="#textext-51599240-1"
             x="223.43201"
             y="134.765"
             id="use18022" />
        </g>
        <g
           style="fill:#000000;fill-opacity:1"
           id="g18024">
          <use
             height="177.16534"
             width="354.33069"
             xlink:href="#textext-51599240-3"
             x="231.271"
             y="134.765"
             id="use18026" />
        </g>
        <g
           style="fill:#000000;fill-opacity:1"
           id="g18028">
          <use
             height="177.16534"
             width="354.33069"
             xlink:href="#textext-51599240-4"
             x="241.78952"
             y="134.765"
             id="use18030" />
        </g>
      </g>
    </g>
    <g
       id="g18406"
       transform="translate(30.662952,840.58083)"
       ns0:preamble=""
       ns0:text="$z=0$">
      <defs
         id="defs18408">
        <g
           id="g18410">
          <symbol
             id="textext-a0dbc5c1-0"
             overflow="visible">
            <path
               id="path18413"
               d=""
               style="stroke:none;" />
          </symbol>
          <symbol
             id="textext-a0dbc5c1-1"
             overflow="visible">
            <path
               id="path18416"
               d="M 1.328125 -0.828125 C 1.859375 -1.40625 2.15625 -1.65625 2.515625 -1.96875 C 2.515625 -1.96875 3.125 -2.5 3.484375 -2.859375 C 4.4375 -3.78125 4.65625 -4.265625 4.65625 -4.3125 C 4.65625 -4.40625 4.5625 -4.40625 4.546875 -4.40625 C 4.46875 -4.40625 4.453125 -4.390625 4.390625 -4.296875 C 4.09375 -3.8125 3.890625 -3.65625 3.65625 -3.65625 C 3.40625 -3.65625 3.296875 -3.8125 3.140625 -3.984375 C 2.953125 -4.203125 2.78125 -4.40625 2.453125 -4.40625 C 1.703125 -4.40625 1.25 -3.484375 1.25 -3.265625 C 1.25 -3.21875 1.28125 -3.15625 1.359375 -3.15625 C 1.453125 -3.15625 1.46875 -3.203125 1.5 -3.265625 C 1.6875 -3.734375 2.265625 -3.734375 2.34375 -3.734375 C 2.546875 -3.734375 2.734375 -3.671875 2.96875 -3.59375 C 3.375 -3.4375 3.484375 -3.4375 3.734375 -3.4375 C 3.375 -3.015625 2.546875 -2.296875 2.359375 -2.140625 L 1.453125 -1.296875 C 0.78125 -0.625 0.421875 -0.0625 0.421875 0.015625 C 0.421875 0.109375 0.53125 0.109375 0.546875 0.109375 C 0.625 0.109375 0.640625 0.09375 0.703125 -0.015625 C 0.9375 -0.375 1.234375 -0.640625 1.5625 -0.640625 C 1.78125 -0.640625 1.890625 -0.546875 2.140625 -0.265625 C 2.296875 -0.046875 2.484375 0.109375 2.765625 0.109375 C 3.765625 0.109375 4.34375 -1.15625 4.34375 -1.421875 C 4.34375 -1.46875 4.296875 -1.53125 4.21875 -1.53125 C 4.125 -1.53125 4.109375 -1.46875 4.078125 -1.390625 C 3.84375 -0.75 3.203125 -0.5625 2.875 -0.5625 C 2.6875 -0.5625 2.5 -0.625 2.296875 -0.6875 C 1.953125 -0.8125 1.796875 -0.859375 1.59375 -0.859375 C 1.578125 -0.859375 1.421875 -0.859375 1.328125 -0.828125 Z M 1.328125 -0.828125 "
               style="stroke:none;" />
          </symbol>
          <symbol
             id="textext-a0dbc5c1-2"
             overflow="visible">
            <path
               id="path18419"
               d=""
               style="stroke:none;" />
          </symbol>
          <symbol
             id="textext-a0dbc5c1-3"
             overflow="visible">
            <path
               id="path18422"
               d="M 6.84375 -3.265625 C 7 -3.265625 7.1875 -3.265625 7.1875 -3.453125 C 7.1875 -3.65625 7 -3.65625 6.859375 -3.65625 L 0.890625 -3.65625 C 0.75 -3.65625 0.5625 -3.65625 0.5625 -3.453125 C 0.5625 -3.265625 0.75 -3.265625 0.890625 -3.265625 Z M 6.859375 -1.328125 C 7 -1.328125 7.1875 -1.328125 7.1875 -1.53125 C 7.1875 -1.71875 7 -1.71875 6.84375 -1.71875 L 0.890625 -1.71875 C 0.75 -1.71875 0.5625 -1.71875 0.5625 -1.53125 C 0.5625 -1.328125 0.75 -1.328125 0.890625 -1.328125 Z M 6.859375 -1.328125 "
               style="stroke:none;" />
          </symbol>
          <symbol
             id="textext-a0dbc5c1-4"
             overflow="visible">
            <path
               id="path18425"
               d="M 4.578125 -3.1875 C 4.578125 -3.984375 4.53125 -4.78125 4.1875 -5.515625 C 3.734375 -6.484375 2.90625 -6.640625 2.5 -6.640625 C 1.890625 -6.640625 1.171875 -6.375 0.75 -5.453125 C 0.4375 -4.765625 0.390625 -3.984375 0.390625 -3.1875 C 0.390625 -2.4375 0.421875 -1.546875 0.84375 -0.78125 C 1.265625 0.015625 2 0.21875 2.484375 0.21875 C 3.015625 0.21875 3.78125 0.015625 4.21875 -0.9375 C 4.53125 -1.625 4.578125 -2.40625 4.578125 -3.1875 Z M 2.484375 0 C 2.09375 0 1.5 -0.25 1.328125 -1.203125 C 1.21875 -1.796875 1.21875 -2.71875 1.21875 -3.3125 C 1.21875 -3.953125 1.21875 -4.609375 1.296875 -5.140625 C 1.484375 -6.328125 2.234375 -6.421875 2.484375 -6.421875 C 2.8125 -6.421875 3.46875 -6.234375 3.65625 -5.25 C 3.765625 -4.6875 3.765625 -3.9375 3.765625 -3.3125 C 3.765625 -2.5625 3.765625 -1.890625 3.65625 -1.25 C 3.5 -0.296875 2.9375 0 2.484375 0 Z M 2.484375 0 "
               style="stroke:none;" />
          </symbol>
        </g>
      </defs>
      <g
         id="textext-a0dbc5c1-5">
        <g
           id="g18428"
           style="fill:rgb(0%,0%,0%);fill-opacity:1;">
          <use
             id="use18430"
             y="134.765"
             x="223.432"
             xlink:href="#textext-a0dbc5c1-1" />
        </g>
        <g
           id="g18432"
           style="fill:rgb(0%,0%,0%);fill-opacity:1;">
          <use
             id="use18434"
             y="134.765"
             x="231.271"
             xlink:href="#textext-a0dbc5c1-3" />
        </g>
        <g
           id="g18436"
           style="fill:rgb(0%,0%,0%);fill-opacity:1;">
          <use
             id="use18438"
             y="134.765"
             x="241.789513"
             xlink:href="#textext-a0dbc5c1-4" />
        </g>
      </g>
    </g>
    <text
       xml:space="preserve"
       style="font-size:11px;font-style:normal;font-variant:normal;font-weight:normal;font-stretch:normal;line-height:125%;letter-spacing:0px;word-spacing:0px;fill:#000000;fill-opacity:1;stroke:none;font-family:Nimbus Roman No9 L;-inkscape-font-specification:Nimbus Roman No9 L"
       x="187.16855"
       y="1002.9851"
       id="text18626"
       sodipodi:linespacing="125%"><tspan
         sodipodi:role="line"
         id="tspan18628"
         x="187.16855"
         y="1002.9851">     Region 1 : Free space :</tspan><tspan
         sodipodi:role="line"
         x="187.16855"
         y="1016.7351"
         id="tspan18630">[      is tangential and       is normal]</tspan></text>
    <g
       ns0:text="$\\epsilon_{r_{1}}=1$"
       ns0:preamble=""
       transform="translate(81.527401,867.66717)"
       id="g18903">
      <defs
         id="defs18905">
        <g
           id="g18907">
          <symbol
             style="overflow:visible"
             overflow="visible"
             id="textext-f2b5d56f-0">
            <path
               inkscape:connector-curvature="0"
               style="stroke:none"
               d=""
               id="path18910" />
          </symbol>
          <symbol
             style="overflow:visible"
             overflow="visible"
             id="textext-f2b5d56f-1">
            <path
               inkscape:connector-curvature="0"
               style="stroke:none"
               d="m 2.96875,-2.25 c 0.15625,0 0.34375,0 0.34375,-0.171875 0,-0.140625 -0.125,-0.140625 -0.296875,-0.140625 l -1.609375,0 c 0.234375,-0.84375 0.796875,-1.421875 1.703125,-1.421875 l 0.3125,0 c 0.171875,0 0.328125,0 0.328125,-0.171875 0,-0.140625 -0.125,-0.140625 -0.296875,-0.140625 l -0.359375,0 c -1.296875,0 -2.625,1 -2.625,2.515625 0,1.109375 0.75,1.890625 1.796875,1.890625 0.65625,0 1.296875,-0.40625 1.296875,-0.515625 0,-0.015625 0,-0.125 -0.09375,-0.125 -0.015625,0 -0.046875,0 -0.125,0.046875 -0.3125,0.203125 -0.6875,0.375 -1.046875,0.375 -0.578125,0 -1.078125,-0.421875 -1.078125,-1.296875 0,-0.34375 0.078125,-0.734375 0.109375,-0.84375 z m 0,0"
               id="path18913" />
          </symbol>
          <symbol
             style="overflow:visible"
             overflow="visible"
             id="textext-f2b5d56f-2">
            <path
               inkscape:connector-curvature="0"
               style="stroke:none"
               d=""
               id="path18916" />
          </symbol>
          <symbol
             style="overflow:visible"
             overflow="visible"
             id="textext-f2b5d56f-3">
            <path
               inkscape:connector-curvature="0"
               style="stroke:none"
               d="m 1.640625,-1.40625 c 0,-0.046875 0.171875,-0.671875 0.171875,-0.703125 0.015625,-0.0625 0.21875,-0.40625 0.453125,-0.578125 0.0625,-0.046875 0.25,-0.1875 0.5625,-0.1875 0.0625,0 0.234375,0 0.375,0.09375 -0.21875,0.0625 -0.296875,0.265625 -0.296875,0.390625 0,0.140625 0.109375,0.25 0.265625,0.25 0.171875,0 0.390625,-0.125 0.390625,-0.421875 0,-0.359375 -0.375,-0.515625 -0.734375,-0.515625 -0.359375,0 -0.671875,0.15625 -0.984375,0.5 -0.125,-0.421875 -0.546875,-0.5 -0.71875,-0.5 -0.25,0 -0.421875,0.171875 -0.546875,0.359375 -0.15625,0.265625 -0.25,0.671875 -0.25,0.71875 0,0.078125 0.09375,0.078125 0.125,0.078125 0.09375,0 0.09375,-0.015625 0.140625,-0.203125 0.109375,-0.421875 0.25,-0.75 0.515625,-0.75 0.1875,0 0.234375,0.15625 0.234375,0.34375 0,0.125 -0.0625,0.390625 -0.125,0.578125 -0.046875,0.1875 -0.109375,0.46875 -0.140625,0.625 L 0.84375,-0.4375 C 0.828125,-0.34375 0.78125,-0.171875 0.78125,-0.15625 0.78125,0 0.90625,0.0625 1.015625,0.0625 1.125,0.0625 1.265625,0 1.3125,-0.125 1.328125,-0.171875 1.40625,-0.484375 1.453125,-0.65625 z m 0,0"
               id="path18919" />
          </symbol>
          <symbol
             style="overflow:visible"
             overflow="visible"
             id="textext-f2b5d56f-4">
            <path
               inkscape:connector-curvature="0"
               style="stroke:none"
               d=""
               id="path18922" />
          </symbol>
          <symbol
             style="overflow:visible"
             overflow="visible"
             id="textext-f2b5d56f-5">
            <path
               inkscape:connector-curvature="0"
               style="stroke:none"
               d="M 1.984375,-3.171875 C 1.984375,-3.3125 1.96875,-3.3125 1.796875,-3.3125 1.453125,-3 0.890625,-3 0.796875,-3 l -0.078125,0 0,0.21875 0.078125,0 c 0.109375,0 0.4375,-0.015625 0.734375,-0.140625 l 0,2.5 c 0,0.140625 0,0.203125 -0.53125,0.203125 l -0.25,0 L 0.75,0 c 0.265625,-0.015625 0.71875,-0.015625 1,-0.015625 0.296875,0 0.734375,0 1.015625,0.015625 l 0,-0.21875 -0.25,0 c -0.53125,0 -0.53125,-0.0625 -0.53125,-0.203125 z m 0,0"
               id="path18925" />
          </symbol>
          <symbol
             style="overflow:visible"
             overflow="visible"
             id="textext-f2b5d56f-6">
            <path
               inkscape:connector-curvature="0"
               style="stroke:none"
               d=""
               id="path18928" />
          </symbol>
          <symbol
             style="overflow:visible"
             overflow="visible"
             id="textext-f2b5d56f-7">
            <path
               inkscape:connector-curvature="0"
               style="stroke:none"
               d="m 6.84375,-3.265625 c 0.15625,0 0.34375,0 0.34375,-0.1875 C 7.1875,-3.65625 7,-3.65625 6.859375,-3.65625 l -5.96875,0 c -0.140625,0 -0.328125,0 -0.328125,0.203125 0,0.1875 0.1875,0.1875 0.328125,0.1875 z m 0.015625,1.9375 c 0.140625,0 0.328125,0 0.328125,-0.203125 0,-0.1875 -0.1875,-0.1875 -0.34375,-0.1875 l -5.953125,0 c -0.140625,0 -0.328125,0 -0.328125,0.1875 0,0.203125 0.1875,0.203125 0.328125,0.203125 z m 0,0"
               id="path18931" />
          </symbol>
          <symbol
             style="overflow:visible"
             overflow="visible"
             id="textext-f2b5d56f-8">
            <path
               inkscape:connector-curvature="0"
               style="stroke:none"
               d="m 2.9375,-6.375 c 0,-0.25 0,-0.265625 -0.234375,-0.265625 C 2.078125,-6 1.203125,-6 0.890625,-6 l 0,0.3125 c 0.203125,0 0.78125,0 1.296875,-0.265625 l 0,5.171875 c 0,0.359375 -0.03125,0.46875 -0.921875,0.46875 l -0.3125,0 0,0.3125 c 0.34375,-0.03125 1.203125,-0.03125 1.609375,-0.03125 0.390625,0 1.265625,0 1.609375,0.03125 l 0,-0.3125 -0.3125,0 c -0.90625,0 -0.921875,-0.109375 -0.921875,-0.46875 z m 0,0"
               id="path18934" />
          </symbol>
        </g>
      </defs>
      <g
         id="textext-f2b5d56f-9">
        <g
           style="fill:#000000;fill-opacity:1"
           id="g18937">
          <use
             height="177.16534"
             width="354.33069"
             xlink:href="#textext-f2b5d56f-1"
             x="223.43201"
             y="134.765"
             id="use18939" />
        </g>
        <g
           style="fill:#000000;fill-opacity:1"
           id="g18941">
          <use
             height="177.16534"
             width="354.33069"
             xlink:href="#textext-f2b5d56f-3"
             x="227.476"
             y="136.259"
             id="use18943" />
        </g>
        <g
           style="fill:#000000;fill-opacity:1"
           id="g18945">
          <use
             height="177.16534"
             width="354.33069"
             xlink:href="#textext-f2b5d56f-5"
             x="231.175"
             y="137.256"
             id="use18947" />
        </g>
        <g
           style="fill:#000000;fill-opacity:1"
           id="g18949">
          <use
             height="177.16534"
             width="354.33069"
             xlink:href="#textext-f2b5d56f-7"
             x="238.32899"
             y="134.765"
             id="use18951" />
        </g>
        <g
           style="fill:#000000;fill-opacity:1"
           id="g18953">
          <use
             height="177.16534"
             width="354.33069"
             xlink:href="#textext-f2b5d56f-8"
             x="248.84752"
             y="134.765"
             id="use18955" />
        </g>
      </g>
    </g>
    <g
       id="g19465"
       transform="translate(-33.299926,882.52928)"
       ns0:preamble=""
       ns0:text="$\\overrightarrow{a}_{y}$">
      <defs
         id="defs19467">
        <g
           id="g19469">
          <symbol
             id="textext-0a880126-0"
             overflow="visible"
             style="overflow:visible">
            <path
               id="path19472"
               d=""
               style="stroke:none"
               inkscape:connector-curvature="0" />
          </symbol>
          <symbol
             id="textext-0a880126-1"
             overflow="visible"
             style="overflow:visible">
            <path
               id="path19475"
               d="m 6.5625,-2.296875 c 0.171875,0 0.359375,0 0.359375,-0.203125 0,-0.1875 -0.1875,-0.1875 -0.359375,-0.1875 l -5.390625,0 c -0.171875,0 -0.34375,0 -0.34375,0.1875 0,0.203125 0.171875,0.203125 0.34375,0.203125 z m 0,0"
               style="stroke:none"
               inkscape:connector-curvature="0" />
          </symbol>
          <symbol
             id="textext-0a880126-2"
             overflow="visible"
             style="overflow:visible">
            <path
               id="path19478"
               d="M 8.3125,-2.296875 C 7.765625,-1.875 7.5,-1.46875 7.421875,-1.328125 c -0.453125,0.6875 -0.53125,1.3125 -0.53125,1.3125 0,0.125 0.125,0.125 0.203125,0.125 C 7.25,0.109375 7.265625,0.09375 7.3125,-0.09375 7.53125,-1.0625 8.125,-1.90625 9.25,-2.359375 9.375,-2.40625 9.40625,-2.421875 9.40625,-2.5 c 0,-0.0625 -0.0625,-0.09375 -0.078125,-0.109375 C 8.875,-2.765625 7.671875,-3.265625 7.296875,-4.9375 7.265625,-5.0625 7.25,-5.09375 7.09375,-5.09375 c -0.078125,0 -0.203125,0 -0.203125,0.125 0,0.015625 0.09375,0.640625 0.5,1.3125 0.203125,0.296875 0.5,0.640625 0.921875,0.96875 l -7.40625,0 c -0.171875,0 -0.359375,0 -0.359375,0.1875 0,0.203125 0.1875,0.203125 0.359375,0.203125 z m 0,0"
               style="stroke:none"
               inkscape:connector-curvature="0" />
          </symbol>
          <symbol
             id="textext-0a880126-3"
             overflow="visible"
             style="overflow:visible">
            <path
               id="path19481"
               d=""
               style="stroke:none"
               inkscape:connector-curvature="0" />
          </symbol>
          <symbol
             id="textext-0a880126-4"
             overflow="visible"
             style="overflow:visible">
            <path
               id="path19484"
               d="M 3.71875,-3.765625 C 3.53125,-4.140625 3.25,-4.40625 2.796875,-4.40625 c -1.15625,0 -2.390625,1.46875 -2.390625,2.921875 0,0.9375 0.546875,1.59375 1.3125,1.59375 0.203125,0 0.703125,-0.046875 1.296875,-0.75 0.078125,0.421875 0.4375,0.75 0.90625,0.75 0.359375,0 0.578125,-0.234375 0.75,-0.546875 0.15625,-0.359375 0.296875,-0.96875 0.296875,-0.984375 0,-0.109375 -0.09375,-0.109375 -0.125,-0.109375 -0.09375,0 -0.109375,0.046875 -0.140625,0.1875 -0.171875,0.640625 -0.34375,1.234375 -0.75,1.234375 -0.28125,0 -0.296875,-0.265625 -0.296875,-0.453125 0,-0.21875 0.015625,-0.3125 0.125,-0.75 C 3.890625,-1.71875 3.90625,-1.828125 4,-2.203125 L 4.359375,-3.59375 c 0.0625,-0.28125 0.0625,-0.296875 0.0625,-0.34375 0,-0.171875 -0.109375,-0.265625 -0.28125,-0.265625 -0.25,0 -0.390625,0.21875 -0.421875,0.4375 z M 3.078125,-1.1875 C 3.015625,-1 3.015625,-0.984375 2.875,-0.8125 2.4375,-0.265625 2.03125,-0.109375 1.75,-0.109375 c -0.5,0 -0.640625,-0.546875 -0.640625,-0.9375 0,-0.5 0.3125,-1.71875 0.546875,-2.1875 0.3125,-0.578125 0.75,-0.953125 1.15625,-0.953125 0.640625,0 0.78125,0.8125 0.78125,0.875 0,0.0625 -0.015625,0.125 -0.03125,0.171875 z m 0,0"
               style="stroke:none"
               inkscape:connector-curvature="0" />
          </symbol>
          <symbol
             id="textext-0a880126-5"
             overflow="visible"
             style="overflow:visible">
            <path
               id="path19487"
               d=""
               style="stroke:none"
               inkscape:connector-curvature="0" />
          </symbol>
          <symbol
             id="textext-0a880126-6"
             overflow="visible"
             style="overflow:visible">
            <path
               id="path19490"
               d="M 3.875,-2.625 C 3.90625,-2.71875 3.90625,-2.734375 3.90625,-2.78125 3.90625,-2.921875 3.796875,-3 3.671875,-3 3.59375,-3 3.46875,-2.96875 3.390625,-2.84375 3.359375,-2.796875 3.3125,-2.578125 3.28125,-2.4375 L 3.125,-1.859375 c -0.03125,0.171875 -0.25,1.046875 -0.28125,1.125 0,0 -0.3125,0.609375 -0.84375,0.609375 -0.484375,0 -0.484375,-0.453125 -0.484375,-0.578125 0,-0.375 0.15625,-0.8125 0.375,-1.359375 C 1.96875,-2.28125 2,-2.359375 2,-2.484375 2,-2.8125 1.71875,-3.078125 1.34375,-3.078125 0.640625,-3.078125 0.328125,-2.125 0.328125,-2 c 0,0.078125 0.09375,0.078125 0.125,0.078125 0.09375,0 0.09375,-0.03125 0.125,-0.109375 C 0.75,-2.609375 1.046875,-2.875 1.328125,-2.875 1.4375,-2.875 1.5,-2.796875 1.5,-2.640625 c 0,0.171875 -0.0625,0.3125 -0.09375,0.40625 C 1.0625,-1.375 1,-1.125 1,-0.8125 1,-0.703125 1,-0.375 1.265625,-0.140625 1.484375,0.03125 1.78125,0.0625 1.96875,0.0625 2.25,0.0625 2.5,-0.03125 2.71875,-0.25 2.640625,0.140625 2.5625,0.4375 2.265625,0.78125 2.078125,1 1.796875,1.21875 1.421875,1.21875 c -0.046875,0 -0.375,0 -0.515625,-0.21875 0.375,-0.046875 0.375,-0.375 0.375,-0.390625 0,-0.21875 -0.203125,-0.265625 -0.265625,-0.265625 -0.171875,0 -0.40625,0.140625 -0.40625,0.46875 0,0.34375 0.328125,0.609375 0.828125,0.609375 C 2.140625,1.421875 3,0.875 3.21875,0 z m 0,0"
               style="stroke:none"
               inkscape:connector-curvature="0" />
          </symbol>
        </g>
      </defs>
      <g
         id="textext-0a880126-7">
        <g
           id="g19493"
           style="fill:#000000;fill-opacity:1">
          <use
             id="use19495"
             y="131.472"
             x="223.43201"
             xlink:href="#textext-0a880126-1"
             width="354.33069"
             height="177.16534" />
        </g>
        <g
           id="g19497"
           style="fill:#000000;fill-opacity:1">
          <use
             id="use19499"
             y="131.472"
             x="223.43001"
             xlink:href="#textext-0a880126-2"
             width="354.33069"
             height="177.16534" />
        </g>
        <g
           id="g19501"
           style="fill:#000000;fill-opacity:1">
          <use
             id="use19503"
             y="134.765"
             x="225.78"
             xlink:href="#textext-0a880126-4"
             width="354.33069"
             height="177.16534" />
        </g>
        <g
           id="g19505"
           style="fill:#000000;fill-opacity:1">
          <use
             id="use19507"
             y="136.259"
             x="233.395"
             xlink:href="#textext-0a880126-6"
             width="354.33069"
             height="177.16534" />
        </g>
      </g>
    </g>
    <g
       ns0:text="$\\overrightarrow{a}_{z}$"
       ns0:preamble=""
       transform="translate(58.700074,882.52928)"
       id="g20057">
      <defs
         id="defs20059">
        <g
           id="g20061">
          <symbol
             overflow="visible"
             id="textext-4fbce47c-0">
            <path
               style="stroke:none;"
               d=""
               id="path20064" />
          </symbol>
          <symbol
             overflow="visible"
             id="textext-4fbce47c-1">
            <path
               style="stroke:none;"
               d="M 6.5625 -2.296875 C 6.734375 -2.296875 6.921875 -2.296875 6.921875 -2.5 C 6.921875 -2.6875 6.734375 -2.6875 6.5625 -2.6875 L 1.171875 -2.6875 C 1 -2.6875 0.828125 -2.6875 0.828125 -2.5 C 0.828125 -2.296875 1 -2.296875 1.171875 -2.296875 Z M 6.5625 -2.296875 "
               id="path20067" />
          </symbol>
          <symbol
             overflow="visible"
             id="textext-4fbce47c-2">
            <path
               style="stroke:none;"
               d="M 8.3125 -2.296875 C 7.765625 -1.875 7.5 -1.46875 7.421875 -1.328125 C 6.96875 -0.640625 6.890625 -0.015625 6.890625 -0.015625 C 6.890625 0.109375 7.015625 0.109375 7.09375 0.109375 C 7.25 0.109375 7.265625 0.09375 7.3125 -0.09375 C 7.53125 -1.0625 8.125 -1.90625 9.25 -2.359375 C 9.375 -2.40625 9.40625 -2.421875 9.40625 -2.5 C 9.40625 -2.5625 9.34375 -2.59375 9.328125 -2.609375 C 8.875 -2.765625 7.671875 -3.265625 7.296875 -4.9375 C 7.265625 -5.0625 7.25 -5.09375 7.09375 -5.09375 C 7.015625 -5.09375 6.890625 -5.09375 6.890625 -4.96875 C 6.890625 -4.953125 6.984375 -4.328125 7.390625 -3.65625 C 7.59375 -3.359375 7.890625 -3.015625 8.3125 -2.6875 L 0.90625 -2.6875 C 0.734375 -2.6875 0.546875 -2.6875 0.546875 -2.5 C 0.546875 -2.296875 0.734375 -2.296875 0.90625 -2.296875 Z M 8.3125 -2.296875 "
               id="path20070" />
          </symbol>
          <symbol
             overflow="visible"
             id="textext-4fbce47c-3">
            <path
               style="stroke:none;"
               d=""
               id="path20073" />
          </symbol>
          <symbol
             overflow="visible"
             id="textext-4fbce47c-4">
            <path
               style="stroke:none;"
               d="M 3.71875 -3.765625 C 3.53125 -4.140625 3.25 -4.40625 2.796875 -4.40625 C 1.640625 -4.40625 0.40625 -2.9375 0.40625 -1.484375 C 0.40625 -0.546875 0.953125 0.109375 1.71875 0.109375 C 1.921875 0.109375 2.421875 0.0625 3.015625 -0.640625 C 3.09375 -0.21875 3.453125 0.109375 3.921875 0.109375 C 4.28125 0.109375 4.5 -0.125 4.671875 -0.4375 C 4.828125 -0.796875 4.96875 -1.40625 4.96875 -1.421875 C 4.96875 -1.53125 4.875 -1.53125 4.84375 -1.53125 C 4.75 -1.53125 4.734375 -1.484375 4.703125 -1.34375 C 4.53125 -0.703125 4.359375 -0.109375 3.953125 -0.109375 C 3.671875 -0.109375 3.65625 -0.375 3.65625 -0.5625 C 3.65625 -0.78125 3.671875 -0.875 3.78125 -1.3125 C 3.890625 -1.71875 3.90625 -1.828125 4 -2.203125 L 4.359375 -3.59375 C 4.421875 -3.875 4.421875 -3.890625 4.421875 -3.9375 C 4.421875 -4.109375 4.3125 -4.203125 4.140625 -4.203125 C 3.890625 -4.203125 3.75 -3.984375 3.71875 -3.765625 Z M 3.078125 -1.1875 C 3.015625 -1 3.015625 -0.984375 2.875 -0.8125 C 2.4375 -0.265625 2.03125 -0.109375 1.75 -0.109375 C 1.25 -0.109375 1.109375 -0.65625 1.109375 -1.046875 C 1.109375 -1.546875 1.421875 -2.765625 1.65625 -3.234375 C 1.96875 -3.8125 2.40625 -4.1875 2.8125 -4.1875 C 3.453125 -4.1875 3.59375 -3.375 3.59375 -3.3125 C 3.59375 -3.25 3.578125 -3.1875 3.5625 -3.140625 Z M 3.078125 -1.1875 "
               id="path20076" />
          </symbol>
          <symbol
             overflow="visible"
             id="textext-4fbce47c-5">
            <path
               style="stroke:none;"
               d=""
               id="path20079" />
          </symbol>
          <symbol
             overflow="visible"
             id="textext-4fbce47c-6">
            <path
               style="stroke:none;"
               d="M 1.171875 -0.609375 C 1.359375 -0.796875 1.484375 -0.921875 2.0625 -1.40625 C 2.21875 -1.515625 2.734375 -1.9375 2.9375 -2.125 C 3.359375 -2.546875 3.625 -2.90625 3.625 -2.984375 C 3.625 -3.078125 3.546875 -3.078125 3.515625 -3.078125 C 3.453125 -3.078125 3.421875 -3.0625 3.390625 -3 C 3.171875 -2.6875 3.03125 -2.578125 2.859375 -2.578125 C 2.78125 -2.578125 2.671875 -2.578125 2.46875 -2.78125 C 2.234375 -3.03125 2.078125 -3.078125 1.921875 -3.078125 C 1.359375 -3.078125 0.984375 -2.46875 0.984375 -2.265625 C 0.984375 -2.1875 1.046875 -2.171875 1.09375 -2.171875 C 1.1875 -2.171875 1.203125 -2.1875 1.21875 -2.265625 C 1.328125 -2.515625 1.71875 -2.53125 1.828125 -2.53125 C 2 -2.53125 2.171875 -2.484375 2.265625 -2.46875 C 2.65625 -2.390625 2.703125 -2.390625 2.875 -2.390625 C 2.703125 -2.1875 2.578125 -2.0625 1.90625 -1.546875 C 1.359375 -1.109375 1.171875 -0.9375 1.046875 -0.796875 C 0.625 -0.390625 0.421875 -0.078125 0.421875 -0.015625 C 0.421875 0.0625 0.515625 0.0625 0.546875 0.0625 C 0.609375 0.0625 0.625 0.0625 0.65625 0 C 0.84375 -0.265625 1.0625 -0.421875 1.296875 -0.421875 C 1.390625 -0.421875 1.484375 -0.421875 1.671875 -0.25 C 1.890625 -0.03125 2.03125 0.0625 2.265625 0.0625 C 3 0.0625 3.46875 -0.78125 3.46875 -1.015625 C 3.46875 -1.09375 3.390625 -1.09375 3.359375 -1.09375 C 3.265625 -1.09375 3.25 -1.0625 3.21875 -0.984375 C 3.09375 -0.640625 2.6875 -0.46875 2.34375 -0.46875 C 2.1875 -0.46875 2 -0.515625 1.828125 -0.546875 C 1.515625 -0.625 1.453125 -0.625 1.328125 -0.625 C 1.3125 -0.625 1.21875 -0.625 1.171875 -0.609375 Z M 1.171875 -0.609375 "
               id="path20082" />
          </symbol>
        </g>
      </defs>
      <g
         id="textext-4fbce47c-7">
        <g
           style="fill:rgb(0%,0%,0%);fill-opacity:1;"
           id="g20085">
          <use
             xlink:href="#textext-4fbce47c-1"
             x="223.432"
             y="131.472"
             id="use20087" />
        </g>
        <g
           style="fill:rgb(0%,0%,0%);fill-opacity:1;"
           id="g20089">
          <use
             xlink:href="#textext-4fbce47c-2"
             x="223.430007"
             y="131.472"
             id="use20091" />
        </g>
        <g
           style="fill:rgb(0%,0%,0%);fill-opacity:1;"
           id="g20093">
          <use
             xlink:href="#textext-4fbce47c-4"
             x="225.78"
             y="134.765"
             id="use20095" />
        </g>
        <g
           style="fill:rgb(0%,0%,0%);fill-opacity:1;"
           id="g20097">
          <use
             xlink:href="#textext-4fbce47c-6"
             x="233.395"
             y="136.259"
             id="use20099" />
        </g>
      </g>
    </g>
    <g
       id="g20729"
       transform="translate(-82.529471,814.18261)"
       ns0:preamble=""
       ns0:text="$D_{2}$">
      <defs
         id="defs20731">
        <g
           id="g20733">
          <symbol
             id="textext-37996bec-0"
             overflow="visible"
             style="overflow:visible">
            <path
               id="path20736"
               d=""
               style="stroke:none"
               inkscape:connector-curvature="0" />
          </symbol>
          <symbol
             id="textext-37996bec-1"
             overflow="visible"
             style="overflow:visible">
            <path
               id="path20739"
               d="m 1.578125,-0.78125 c -0.09375,0.390625 -0.109375,0.46875 -0.90625,0.46875 -0.15625,0 -0.265625,0 -0.265625,0.1875 C 0.40625,0 0.484375,0 0.671875,0 l 3.3125,0 c 2.0625,0 4.03125,-2.109375 4.03125,-4.28125 0,-1.40625 -0.84375,-2.53125 -2.34375,-2.53125 l -3.34375,0 c -0.1875,0 -0.296875,0 -0.296875,0.1875 0,0.125 0.078125,0.125 0.28125,0.125 0.125,0 0.3125,0.015625 0.421875,0.015625 0.171875,0.03125 0.21875,0.046875 0.21875,0.171875 0,0.03125 0,0.0625 -0.03125,0.1875 z M 3.734375,-6.125 C 3.828125,-6.46875 3.84375,-6.5 4.28125,-6.5 l 1.0625,0 c 0.96875,0 1.796875,0.53125 1.796875,1.84375 0,0.484375 -0.1875,2.125 -1.046875,3.21875 -0.28125,0.375 -1.0625,1.125 -2.296875,1.125 l -1.125,0 c -0.140625,0 -0.15625,0 -0.21875,0 -0.09375,-0.015625 -0.125,-0.03125 -0.125,-0.109375 0,-0.03125 0,-0.046875 0.046875,-0.21875 z m 0,0"
               style="stroke:none"
               inkscape:connector-curvature="0" />
          </symbol>
          <symbol
             id="textext-37996bec-2"
             overflow="visible"
             style="overflow:visible">
            <path
               id="path20742"
               d=""
               style="stroke:none"
               inkscape:connector-curvature="0" />
          </symbol>
          <symbol
             id="textext-37996bec-3"
             overflow="visible"
             style="overflow:visible">
            <path
               id="path20745"
               d="m 3.515625,-1.265625 -0.234375,0 c -0.015625,0.15625 -0.09375,0.5625 -0.1875,0.625 -0.046875,0.046875 -0.578125,0.046875 -0.6875,0.046875 l -1.28125,0 c 0.734375,-0.640625 0.984375,-0.84375 1.390625,-1.171875 0.515625,-0.40625 1,-0.84375 1,-1.5 0,-0.84375 -0.734375,-1.359375 -1.625,-1.359375 -0.859375,0 -1.453125,0.609375 -1.453125,1.25 0,0.34375 0.296875,0.390625 0.375,0.390625 0.15625,0 0.359375,-0.125 0.359375,-0.375 0,-0.125 -0.046875,-0.375 -0.40625,-0.375 C 0.984375,-4.21875 1.453125,-4.375 1.78125,-4.375 c 0.703125,0 1.0625,0.546875 1.0625,1.109375 0,0.609375 -0.4375,1.078125 -0.65625,1.328125 L 0.515625,-0.265625 C 0.4375,-0.203125 0.4375,-0.1875 0.4375,0 l 2.875,0 z m 0,0"
               style="stroke:none"
               inkscape:connector-curvature="0" />
          </symbol>
        </g>
      </defs>
      <g
         id="textext-37996bec-4">
        <g
           id="g20748"
           style="fill:#000000;fill-opacity:1">
          <use
             id="use20750"
             y="134.765"
             x="223.43201"
             xlink:href="#textext-37996bec-1"
             width="354.33069"
             height="177.16534" />
        </g>
        <g
           id="g20752"
           style="fill:#000000;fill-opacity:1">
          <use
             id="use20754"
             y="136.259"
             x="231.67999"
             xlink:href="#textext-37996bec-3"
             width="354.33069"
             height="177.16534" />
        </g>
      </g>
    </g>
    <g
       ns0:text="$D_{3}$"
       ns0:preamble=""
       transform="translate(-41.574391,782.80504)"
       id="g21368">
      <defs
         id="defs21370">
        <g
           id="g21372">
          <symbol
             style="overflow:visible"
             overflow="visible"
             id="textext-49a187cd-0">
            <path
               inkscape:connector-curvature="0"
               style="stroke:none"
               d=""
               id="path21375" />
          </symbol>
          <symbol
             style="overflow:visible"
             overflow="visible"
             id="textext-49a187cd-1">
            <path
               inkscape:connector-curvature="0"
               style="stroke:none"
               d="m 1.578125,-0.78125 c -0.09375,0.390625 -0.109375,0.46875 -0.90625,0.46875 -0.15625,0 -0.265625,0 -0.265625,0.1875 C 0.40625,0 0.484375,0 0.671875,0 l 3.3125,0 c 2.0625,0 4.03125,-2.109375 4.03125,-4.28125 0,-1.40625 -0.84375,-2.53125 -2.34375,-2.53125 l -3.34375,0 c -0.1875,0 -0.296875,0 -0.296875,0.1875 0,0.125 0.078125,0.125 0.28125,0.125 0.125,0 0.3125,0.015625 0.421875,0.015625 0.171875,0.03125 0.21875,0.046875 0.21875,0.171875 0,0.03125 0,0.0625 -0.03125,0.1875 z M 3.734375,-6.125 C 3.828125,-6.46875 3.84375,-6.5 4.28125,-6.5 l 1.0625,0 c 0.96875,0 1.796875,0.53125 1.796875,1.84375 0,0.484375 -0.1875,2.125 -1.046875,3.21875 -0.28125,0.375 -1.0625,1.125 -2.296875,1.125 l -1.125,0 c -0.140625,0 -0.15625,0 -0.21875,0 -0.09375,-0.015625 -0.125,-0.03125 -0.125,-0.109375 0,-0.03125 0,-0.046875 0.046875,-0.21875 z m 0,0"
               id="path21378" />
          </symbol>
          <symbol
             style="overflow:visible"
             overflow="visible"
             id="textext-49a187cd-2">
            <path
               inkscape:connector-curvature="0"
               style="stroke:none"
               d=""
               id="path21381" />
          </symbol>
          <symbol
             style="overflow:visible"
             overflow="visible"
             id="textext-49a187cd-3">
            <path
               inkscape:connector-curvature="0"
               style="stroke:none"
               d="m 1.90625,-2.328125 c 0.546875,0 0.9375,0.375 0.9375,1.125 0,0.859375 -0.515625,1.125 -0.90625,1.125 -0.28125,0 -0.90625,-0.078125 -1.1875,-0.5 0.328125,0 0.40625,-0.234375 0.40625,-0.390625 0,-0.21875 -0.171875,-0.375 -0.390625,-0.375 -0.1875,0 -0.390625,0.125 -0.390625,0.40625 0,0.65625 0.71875,1.078125 1.5625,1.078125 0.96875,0 1.640625,-0.65625 1.640625,-1.34375 0,-0.546875 -0.4375,-1.09375 -1.203125,-1.25 0.71875,-0.265625 0.984375,-0.78125 0.984375,-1.21875 0,-0.546875 -0.625,-0.953125 -1.40625,-0.953125 -0.765625,0 -1.359375,0.375 -1.359375,0.9375 0,0.234375 0.15625,0.359375 0.359375,0.359375 0.21875,0 0.359375,-0.15625 0.359375,-0.34375 0,-0.203125 -0.140625,-0.359375 -0.359375,-0.375 0.25,-0.296875 0.71875,-0.375 0.984375,-0.375 0.3125,0 0.75,0.15625 0.75,0.75 0,0.296875 -0.09375,0.625 -0.28125,0.828125 -0.21875,0.265625 -0.421875,0.28125 -0.765625,0.3125 -0.171875,0.015625 -0.1875,0.015625 -0.21875,0.015625 -0.015625,0 -0.078125,0.015625 -0.078125,0.09375 0,0.09375 0.0625,0.09375 0.1875,0.09375 z m 0,0"
               id="path21384" />
          </symbol>
        </g>
      </defs>
      <g
         id="textext-49a187cd-4">
        <g
           style="fill:#000000;fill-opacity:1"
           id="g21387">
          <use
             height="177.16534"
             width="354.33069"
             xlink:href="#textext-49a187cd-1"
             x="223.43201"
             y="134.765"
             id="use21389" />
        </g>
        <g
           style="fill:#000000;fill-opacity:1"
           id="g21391">
          <use
             height="177.16534"
             width="354.33069"
             xlink:href="#textext-49a187cd-3"
             x="231.67999"
             y="136.259"
             id="use21393" />
        </g>
      </g>
    </g>
    <g
       id="g22039"
       transform="translate(-96.117371,867.69106)"
       ns0:preamble=""
       ns0:text="$\\theta_{1}$">
      <defs
         id="defs22041">
        <g
           id="g22043">
          <symbol
             id="textext-9a25aa9a-0"
             overflow="visible"
             style="overflow:visible">
            <path
               id="path22046"
               d=""
               style="stroke:none"
               inkscape:connector-curvature="0" />
          </symbol>
          <symbol
             id="textext-9a25aa9a-1"
             overflow="visible"
             style="overflow:visible">
            <path
               id="path22049"
               d="m 4.53125,-4.984375 c 0,-0.65625 -0.171875,-2.046875 -1.1875,-2.046875 -1.390625,0 -2.921875,2.8125 -2.921875,5.09375 0,0.9375 0.28125,2.046875 1.1875,2.046875 1.40625,0 2.921875,-2.859375 2.921875,-5.09375 z M 1.46875,-3.625 C 1.640625,-4.25 1.84375,-5.046875 2.25,-5.765625 2.515625,-6.25 2.875,-6.8125 3.328125,-6.8125 c 0.484375,0 0.546875,0.640625 0.546875,1.203125 0,0.5 -0.078125,1 -0.3125,1.984375 z m 2,0.328125 C 3.359375,-2.84375 3.15625,-2 2.765625,-1.28125 c -0.34375,0.6875 -0.71875,1.171875 -1.15625,1.171875 -0.328125,0 -0.53125,-0.296875 -0.53125,-1.21875 0,-0.421875 0.0625,-1 0.3125,-1.96875 z m 0,0"
               style="stroke:none"
               inkscape:connector-curvature="0" />
          </symbol>
          <symbol
             id="textext-9a25aa9a-2"
             overflow="visible"
             style="overflow:visible">
            <path
               id="path22052"
               d=""
               style="stroke:none"
               inkscape:connector-curvature="0" />
          </symbol>
          <symbol
             id="textext-9a25aa9a-3"
             overflow="visible"
             style="overflow:visible">
            <path
               id="path22055"
               d="m 2.328125,-4.4375 c 0,-0.1875 0,-0.1875 -0.203125,-0.1875 -0.453125,0.4375 -1.078125,0.4375 -1.359375,0.4375 l 0,0.25 c 0.15625,0 0.625,0 1,-0.1875 l 0,3.546875 c 0,0.234375 0,0.328125 -0.6875,0.328125 l -0.265625,0 0,0.25 c 0.125,0 0.984375,-0.03125 1.234375,-0.03125 0.21875,0 1.09375,0.03125 1.25,0.03125 l 0,-0.25 -0.265625,0 c -0.703125,0 -0.703125,-0.09375 -0.703125,-0.328125 z m 0,0"
               style="stroke:none"
               inkscape:connector-curvature="0" />
          </symbol>
        </g>
      </defs>
      <g
         id="textext-9a25aa9a-4">
        <g
           id="g22058"
           style="fill:#000000;fill-opacity:1">
          <use
             id="use22060"
             y="134.765"
             x="223.43201"
             xlink:href="#textext-9a25aa9a-1"
             width="354.33069"
             height="177.16534" />
        </g>
        <g
           id="g22062"
           style="fill:#000000;fill-opacity:1">
          <use
             id="use22064"
             y="136.259"
             x="228.10899"
             xlink:href="#textext-9a25aa9a-3"
             width="354.33069"
             height="177.16534" />
        </g>
      </g>
    </g>
    <g
       ns0:text="$\\theta_{2}$"
       ns0:preamble=""
       transform="translate(-80.117371,834.54278)"
       id="g22742">
      <defs
         id="defs22744">
        <g
           id="g22746">
          <symbol
             style="overflow:visible"
             overflow="visible"
             id="textext-22b67964-0">
            <path
               inkscape:connector-curvature="0"
               style="stroke:none"
               d=""
               id="path22749" />
          </symbol>
          <symbol
             style="overflow:visible"
             overflow="visible"
             id="textext-22b67964-1">
            <path
               inkscape:connector-curvature="0"
               style="stroke:none"
               d="m 4.53125,-4.984375 c 0,-0.65625 -0.171875,-2.046875 -1.1875,-2.046875 -1.390625,0 -2.921875,2.8125 -2.921875,5.09375 0,0.9375 0.28125,2.046875 1.1875,2.046875 1.40625,0 2.921875,-2.859375 2.921875,-5.09375 z M 1.46875,-3.625 C 1.640625,-4.25 1.84375,-5.046875 2.25,-5.765625 2.515625,-6.25 2.875,-6.8125 3.328125,-6.8125 c 0.484375,0 0.546875,0.640625 0.546875,1.203125 0,0.5 -0.078125,1 -0.3125,1.984375 z m 2,0.328125 C 3.359375,-2.84375 3.15625,-2 2.765625,-1.28125 c -0.34375,0.6875 -0.71875,1.171875 -1.15625,1.171875 -0.328125,0 -0.53125,-0.296875 -0.53125,-1.21875 0,-0.421875 0.0625,-1 0.3125,-1.96875 z m 0,0"
               id="path22752" />
          </symbol>
          <symbol
             style="overflow:visible"
             overflow="visible"
             id="textext-22b67964-2">
            <path
               inkscape:connector-curvature="0"
               style="stroke:none"
               d=""
               id="path22755" />
          </symbol>
          <symbol
             style="overflow:visible"
             overflow="visible"
             id="textext-22b67964-3">
            <path
               inkscape:connector-curvature="0"
               style="stroke:none"
               d="m 3.515625,-1.265625 -0.234375,0 c -0.015625,0.15625 -0.09375,0.5625 -0.1875,0.625 -0.046875,0.046875 -0.578125,0.046875 -0.6875,0.046875 l -1.28125,0 c 0.734375,-0.640625 0.984375,-0.84375 1.390625,-1.171875 0.515625,-0.40625 1,-0.84375 1,-1.5 0,-0.84375 -0.734375,-1.359375 -1.625,-1.359375 -0.859375,0 -1.453125,0.609375 -1.453125,1.25 0,0.34375 0.296875,0.390625 0.375,0.390625 0.15625,0 0.359375,-0.125 0.359375,-0.375 0,-0.125 -0.046875,-0.375 -0.40625,-0.375 C 0.984375,-4.21875 1.453125,-4.375 1.78125,-4.375 c 0.703125,0 1.0625,0.546875 1.0625,1.109375 0,0.609375 -0.4375,1.078125 -0.65625,1.328125 L 0.515625,-0.265625 C 0.4375,-0.203125 0.4375,-0.1875 0.4375,0 l 2.875,0 z m 0,0"
               id="path22758" />
          </symbol>
        </g>
      </defs>
      <g
         id="textext-22b67964-4">
        <g
           style="fill:#000000;fill-opacity:1"
           id="g22761">
          <use
             height="177.16534"
             width="354.33069"
             xlink:href="#textext-22b67964-1"
             x="223.43201"
             y="134.765"
             id="use22763" />
        </g>
        <g
           style="fill:#000000;fill-opacity:1"
           id="g22765">
          <use
             height="177.16534"
             width="354.33069"
             xlink:href="#textext-22b67964-3"
             x="228.10899"
             y="136.259"
             id="use22767" />
        </g>
      </g>
    </g>
    <g
       id="g23477"
       transform="translate(-48.640402,803.03297)"
       ns0:preamble=""
       ns0:text="$\\theta_{3}$">
      <defs
         id="defs23479">
        <g
           id="g23481">
          <symbol
             id="textext-66eab9e1-0"
             overflow="visible"
             style="overflow:visible">
            <path
               id="path23484"
               d=""
               style="stroke:none"
               inkscape:connector-curvature="0" />
          </symbol>
          <symbol
             id="textext-66eab9e1-1"
             overflow="visible"
             style="overflow:visible">
            <path
               id="path23487"
               d="m 4.53125,-4.984375 c 0,-0.65625 -0.171875,-2.046875 -1.1875,-2.046875 -1.390625,0 -2.921875,2.8125 -2.921875,5.09375 0,0.9375 0.28125,2.046875 1.1875,2.046875 1.40625,0 2.921875,-2.859375 2.921875,-5.09375 z M 1.46875,-3.625 C 1.640625,-4.25 1.84375,-5.046875 2.25,-5.765625 2.515625,-6.25 2.875,-6.8125 3.328125,-6.8125 c 0.484375,0 0.546875,0.640625 0.546875,1.203125 0,0.5 -0.078125,1 -0.3125,1.984375 z m 2,0.328125 C 3.359375,-2.84375 3.15625,-2 2.765625,-1.28125 c -0.34375,0.6875 -0.71875,1.171875 -1.15625,1.171875 -0.328125,0 -0.53125,-0.296875 -0.53125,-1.21875 0,-0.421875 0.0625,-1 0.3125,-1.96875 z m 0,0"
               style="stroke:none"
               inkscape:connector-curvature="0" />
          </symbol>
          <symbol
             id="textext-66eab9e1-2"
             overflow="visible"
             style="overflow:visible">
            <path
               id="path23490"
               d=""
               style="stroke:none"
               inkscape:connector-curvature="0" />
          </symbol>
          <symbol
             id="textext-66eab9e1-3"
             overflow="visible"
             style="overflow:visible">
            <path
               id="path23493"
               d="m 1.90625,-2.328125 c 0.546875,0 0.9375,0.375 0.9375,1.125 0,0.859375 -0.515625,1.125 -0.90625,1.125 -0.28125,0 -0.90625,-0.078125 -1.1875,-0.5 0.328125,0 0.40625,-0.234375 0.40625,-0.390625 0,-0.21875 -0.171875,-0.375 -0.390625,-0.375 -0.1875,0 -0.390625,0.125 -0.390625,0.40625 0,0.65625 0.71875,1.078125 1.5625,1.078125 0.96875,0 1.640625,-0.65625 1.640625,-1.34375 0,-0.546875 -0.4375,-1.09375 -1.203125,-1.25 0.71875,-0.265625 0.984375,-0.78125 0.984375,-1.21875 0,-0.546875 -0.625,-0.953125 -1.40625,-0.953125 -0.765625,0 -1.359375,0.375 -1.359375,0.9375 0,0.234375 0.15625,0.359375 0.359375,0.359375 0.21875,0 0.359375,-0.15625 0.359375,-0.34375 0,-0.203125 -0.140625,-0.359375 -0.359375,-0.375 0.25,-0.296875 0.71875,-0.375 0.984375,-0.375 0.3125,0 0.75,0.15625 0.75,0.75 0,0.296875 -0.09375,0.625 -0.28125,0.828125 -0.21875,0.265625 -0.421875,0.28125 -0.765625,0.3125 -0.171875,0.015625 -0.1875,0.015625 -0.21875,0.015625 -0.015625,0 -0.078125,0.015625 -0.078125,0.09375 0,0.09375 0.0625,0.09375 0.1875,0.09375 z m 0,0"
               style="stroke:none"
               inkscape:connector-curvature="0" />
          </symbol>
        </g>
      </defs>
      <g
         id="textext-66eab9e1-4">
        <g
           id="g23496"
           style="fill:#000000;fill-opacity:1">
          <use
             id="use23498"
             y="134.765"
             x="223.43201"
             xlink:href="#textext-66eab9e1-1"
             width="354.33069"
             height="177.16534" />
        </g>
        <g
           id="g23500"
           style="fill:#000000;fill-opacity:1">
          <use
             id="use23502"
             y="136.259"
             x="228.10899"
             xlink:href="#textext-66eab9e1-3"
             width="354.33069"
             height="177.16534" />
        </g>
      </g>
    </g>
  </g>
</svg>
