<?xml version="1.0" encoding="UTF-8" standalone="no"?>
<!-- Created with Inkscape (http://www.inkscape.org/) -->

<svg
   xmlns:ns0="http://www.iki.fi/pav/software/textext/"
   xmlns:dc="http://purl.org/dc/elements/1.1/"
   xmlns:cc="http://creativecommons.org/ns#"
   xmlns:rdf="http://www.w3.org/1999/02/22-rdf-syntax-ns#"
   xmlns:svg="http://www.w3.org/2000/svg"
   xmlns="http://www.w3.org/2000/svg"
   xmlns:xlink="http://www.w3.org/1999/xlink"
   xmlns:sodipodi="http://sodipodi.sourceforge.net/DTD/sodipodi-0.dtd"
   xmlns:inkscape="http://www.inkscape.org/namespaces/inkscape"
   id="svg2"
   version="1.1"
   inkscape:version="0.48.4 r9939"
   width="191.33858"
   height="165"
   xml:space="preserve"
   sodipodi:docname="new-1.svg"><sodipodi:namedview
     pagecolor="#ffffff"
     bordercolor="#666666"
     borderopacity="1"
     objecttolerance="10"
     gridtolerance="10"
     guidetolerance="10"
     inkscape:pageopacity="0"
     inkscape:pageshadow="2"
     inkscape:window-width="1366"
     inkscape:window-height="744"
     id="namedview4"
     showgrid="false"
     units="cm"
     inkscape:zoom="2.022754"
     inkscape:cx="43.407026"
     inkscape:cy="59.229706"
     inkscape:window-x="0"
     inkscape:window-y="24"
     inkscape:window-maximized="1"
     inkscape:current-layer="g10" /><metadata
     id="metadata8"><rdf:RDF><cc:Work
         rdf:about=""><dc:format>image/svg+xml</dc:format><dc:type
           rdf:resource="http://purl.org/dc/dcmitype/StillImage" /><dc:title /></cc:Work></rdf:RDF></metadata><defs
     id="defs6"><marker
       inkscape:stockid="Arrow1Mend"
       orient="auto"
       refY="0.0"
       refX="0.0"
       id="Arrow1Mend"
       style="overflow:visible;"><path
         id="path3788"
         d="M 0.0,0.0 L 5.0,-5.0 L -12.5,0.0 L 5.0,5.0 L 0.0,0.0 z "
         style="fill-rule:evenodd;stroke:#000000;stroke-width:1.0pt;"
         transform="scale(0.4) rotate(180) translate(10,0)" /></marker></defs><g
     id="g10"
     inkscape:groupmode="layer"
     inkscape:label="ink_ext_XXXXXX"
     transform="matrix(1.25,0,0,-1.25,0,164.99996)"><rect
       style="fill:none;stroke:#000000;stroke-width:0.5;stroke-linecap:round;stroke-linejoin:miter;stroke-miterlimit:4;stroke-opacity:1;stroke-dasharray:none;stroke-dashoffset:0"
       id="rect2993"
       width="73.128555"
       height="85.533958"
       x="24.43162"
       y="-98.359116"
       transform="scale(1,-1)" /><rect
       style="fill:none;stroke:#000000;stroke-width:0.5;stroke-linecap:round;stroke-linejoin:miter;stroke-miterlimit:4;stroke-opacity:1;stroke-dasharray:none;stroke-dashoffset:0"
       id="rect2995"
       width="36.192436"
       height="36.436863"
       x="42.77573"
       y="-70.417984"
       transform="scale(1,-1)" /><text
       xml:space="preserve"
       style="font-size:8.92132568px;font-style:normal;font-variant:normal;font-weight:normal;font-stretch:normal;line-height:125%;letter-spacing:0px;word-spacing:0px;fill:#000000;fill-opacity:1;stroke:none;font-family:Nimbus Roman No9 L;-inkscape-font-specification:Nimbus Roman No9 L"
       x="98.769257"
       y="-92.752792"
       id="text2997"
       sodipodi:linespacing="125%"
       transform="scale(1.0000475,-0.99995248)"><tspan
         sodipodi:role="line"
         id="tspan2999"
         x="98.769257"
         y="-92.752792" /><tspan
         sodipodi:role="line"
         id="tspan3001"
         x="98.769257"
         y="-83.155891"
         style="font-size:7.29926586px">Outer</tspan><tspan
         sodipodi:role="line"
         x="98.769257"
         y="-74.031815"
         id="tspan3003"
         style="font-size:7.29926586px">Conductor</tspan></text>
<path
       style="fill:none;stroke:#000000;stroke-width:0.80000001px;stroke-linecap:butt;stroke-linejoin:miter;stroke-opacity:1;marker-end:url(#Arrow1Mend)"
       d="m 65.829818,103.31651 29.251416,0"
       id="path3005"
       inkscape:connector-curvature="0" /><path
       inkscape:connector-curvature="0"
       id="path4219"
       d="m 55.351438,103.31651 -29.25142,0"
       style="fill:none;stroke:#000000;stroke-width:0.80000001px;stroke-linecap:butt;stroke-linejoin:miter;stroke-opacity:1;marker-end:url(#Arrow1Mend)" /><path
       style="fill:none;stroke:#000000;stroke-width:0.80000001px;stroke-linecap:butt;stroke-linejoin:miter;stroke-opacity:1"
       d="m 96.692544,107.28243 0,-7.312163"
       id="path4221"
       inkscape:connector-curvature="0" /><path
       style="fill:none;stroke:#000000;stroke-width:0.80000001px;stroke-linecap:butt;stroke-linejoin:miter;stroke-opacity:1"
       d="m 24.927406,107.40636 0,-7.18822"
       id="path4223"
       inkscape:connector-curvature="0" /><path
       style="fill:none;stroke:#000000;stroke-width:0.80000001px;stroke-linecap:butt;stroke-linejoin:miter;stroke-opacity:1;marker-end:url(#Arrow1Mend)"
       d="m 18.023057,62.539221 0,34.039244"
       id="path4225"
       inkscape:connector-curvature="0"
       sodipodi:nodetypes="cc" /><path
       sodipodi:nodetypes="cc"
       inkscape:connector-curvature="0"
       id="path4227"
       d="m 18.023057,53.635367 0,-39.387277"
       style="fill:none;stroke:#000000;stroke-width:0.80000001px;stroke-linecap:butt;stroke-linejoin:miter;stroke-opacity:1;marker-end:url(#Arrow1Mend)" /><path
       inkscape:connector-curvature="0"
       id="path4229"
       d="m 21.510171,98.028329 -7.188909,0"
       style="fill:none;stroke:#000000;stroke-width:0.80000001px;stroke-linecap:butt;stroke-linejoin:miter;stroke-opacity:1" /><path
       style="fill:none;stroke:#000000;stroke-width:0.80000001px;stroke-linecap:butt;stroke-linejoin:miter;stroke-opacity:1"
       d="m 21.510171,13.136489 -7.188909,0"
       id="path4231"
       inkscape:connector-curvature="0" /><path
       style="fill:none;stroke:#000000;stroke-width:0.80000001px;stroke-linecap:butt;stroke-linejoin:miter;stroke-opacity:1;marker-end:url(#Arrow1Mend)"
       d="m 55.877299,74.620973 -12.073284,0"
       id="path4233"
       inkscape:connector-curvature="0"
       sodipodi:nodetypes="cc" /><path
       sodipodi:nodetypes="cc"
       inkscape:connector-curvature="0"
       id="path4235"
       d="m 65.422366,74.620973 12.073284,0"
       style="fill:none;stroke:#000000;stroke-width:0.80000001px;stroke-linecap:butt;stroke-linejoin:miter;stroke-opacity:1;marker-end:url(#Arrow1Mend)" /><path
       inkscape:connector-curvature="0"
       id="path4237"
       d="m 78.605859,77.375749 0,-5.734726"
       style="fill:none;stroke:#000000;stroke-width:0.80000001px;stroke-linecap:butt;stroke-linejoin:miter;stroke-opacity:1"
       sodipodi:nodetypes="cc" /><path
       sodipodi:nodetypes="cc"
       style="fill:none;stroke:#000000;stroke-width:0.80000001px;stroke-linecap:butt;stroke-linejoin:miter;stroke-opacity:1"
       d="m 42.799017,77.375749 0,-5.734726"
       id="path4239"
       inkscape:connector-curvature="0" /><path
       style="fill:none;stroke:#000000;stroke-width:0.80000001px;stroke-linecap:butt;stroke-linejoin:miter;stroke-opacity:1;marker-end:url(#Arrow1Mend)"
       d="m 81.875218,49.172995 0,-14.350652"
       id="path4243"
       inkscape:connector-curvature="0"
       sodipodi:nodetypes="cc" /><path
       sodipodi:nodetypes="cc"
       inkscape:connector-curvature="0"
       id="path4245"
       d="m 81.875218,57.094763 0,11.896866"
       style="fill:none;stroke:#000000;stroke-width:0.80000001px;stroke-linecap:butt;stroke-linejoin:miter;stroke-opacity:1;marker-end:url(#Arrow1Mend)" /><path
       sodipodi:nodetypes="cc"
       style="fill:none;stroke:#000000;stroke-width:0.80000001px;stroke-linecap:butt;stroke-linejoin:miter;stroke-opacity:1"
       d="m 84.565049,69.951355 -4.508259,0"
       id="path4247"
       inkscape:connector-curvature="0" /><path
       inkscape:connector-curvature="0"
       id="path4249"
       d="m 84.039187,34.323188 -3.982397,0"
       style="fill:none;stroke:#000000;stroke-width:0.80000001px;stroke-linecap:butt;stroke-linejoin:miter;stroke-opacity:1"
       sodipodi:nodetypes="cc" /><path
       sodipodi:nodetypes="cc"
       inkscape:connector-curvature="0"
       id="path4251"
       d="m 31.512392,55.245717 -5.938236,0"
       style="fill:none;stroke:#000000;stroke-width:0.80000001px;stroke-linecap:butt;stroke-linejoin:miter;stroke-opacity:1;marker-end:url(#Arrow1Mend)" /><path
       style="fill:none;stroke:#000000;stroke-width:0.80000001px;stroke-linecap:butt;stroke-linejoin:miter;stroke-opacity:1;marker-end:url(#Arrow1Mend)"
       d="m 36.388318,55.245717 5.938236,0"
       id="path4253"
       inkscape:connector-curvature="0"
       sodipodi:nodetypes="cc" /><path
       style="fill:none;stroke:#000000;stroke-width:0.80000001px;stroke-linecap:butt;stroke-linejoin:miter;stroke-opacity:1;marker-end:url(#Arrow1Mend)"
       d="m 59.117249,27.589541 0,5.379964"
       id="path4255"
       inkscape:connector-curvature="0"
       sodipodi:nodetypes="cc" /><path
       sodipodi:nodetypes="cc"
       inkscape:connector-curvature="0"
       id="path4257"
       d="m 59.117249,22.094405 0,-5.379965"
       style="fill:none;stroke:#000000;stroke-width:0.80000001px;stroke-linecap:butt;stroke-linejoin:miter;stroke-opacity:1;marker-end:url(#Arrow1Mend)" /><text
       xml:space="preserve"
       style="font-size:8.83439636px;font-style:normal;font-variant:normal;font-weight:normal;font-stretch:normal;line-height:125%;letter-spacing:0px;word-spacing:0px;fill:#000000;fill-opacity:1;stroke:none;font-family:Nimbus Roman No9 L;-inkscape-font-specification:Nimbus Roman No9 L"
       x="45.564598"
       y="-54.044041"
       id="text4259"
       sodipodi:linespacing="125%"
       transform="scale(1.0000475,-0.9999525)"><tspan
         sodipodi:role="line"
         id="tspan4261"
         x="45.564598"
         y="-54.044041"
         style="font-size:7.22814178px">Inner</tspan><tspan
         sodipodi:role="line"
         x="45.564598"
         y="-45.008865"
         id="tspan4263"
         style="font-size:7.22814178px">Conductor</tspan></text>
<text
       xml:space="preserve"
       style="font-size:11px;font-style:normal;font-variant:normal;font-weight:normal;font-stretch:normal;line-height:125%;letter-spacing:0px;word-spacing:0px;fill:#000000;fill-opacity:1;stroke:none;font-family:Nimbus Roman No9 L;-inkscape-font-specification:Nimbus Roman No9 L"
       x="206.59958"
       y="79.703392"
       id="text4265"
       sodipodi:linespacing="125%"
       transform="matrix(0.8,0,0,-0.8,0,131.99997)"><tspan
         sodipodi:role="line"
         id="tspan4267"
         x="206.59958"
         y="79.703392" /></text>
<g
       transform="matrix(0.65521309,0,0,-0.65515079,-88.645841,160.45656)"
       ns0:text="$2\'\'$"
       ns0:preamble=""
       id="g4310"><defs
         id="defs4312"><g
           id="g4314"><symbol
             style="overflow:visible"
             overflow="visible"
             id="textext-e2f429ec-0"><path
               inkscape:connector-curvature="0"
               style="stroke:none"
               d=""
               id="path4317" /></symbol><symbol
             style="overflow:visible"
             overflow="visible"
             id="textext-e2f429ec-1"><path
               inkscape:connector-curvature="0"
               style="stroke:none"
               d="m 1.265625,-0.765625 1.0625,-1.03125 c 1.546875,-1.375 2.140625,-1.90625 2.140625,-2.90625 0,-1.140625 -0.890625,-1.9375 -2.109375,-1.9375 -1.125,0 -1.859375,0.921875 -1.859375,1.8125 0,0.546875 0.5,0.546875 0.53125,0.546875 0.171875,0 0.515625,-0.109375 0.515625,-0.53125 0,-0.25 -0.1875,-0.515625 -0.53125,-0.515625 -0.078125,0 -0.09375,0 -0.125,0.015625 0.21875,-0.65625 0.765625,-1.015625 1.34375,-1.015625 0.90625,0 1.328125,0.8125 1.328125,1.625 C 3.5625,-3.90625 3.078125,-3.125 2.515625,-2.5 l -1.90625,2.125 C 0.5,-0.265625 0.5,-0.234375 0.5,0 l 3.703125,0 0.265625,-1.734375 -0.234375,0 C 4.171875,-1.4375 4.109375,-1 4,-0.84375 3.9375,-0.765625 3.28125,-0.765625 3.0625,-0.765625 z m 0,0"
               id="path4320" /></symbol><symbol
             style="overflow:visible"
             overflow="visible"
             id="textext-e2f429ec-2"><path
               inkscape:connector-curvature="0"
               style="stroke:none"
               d=""
               id="path4323" /></symbol><symbol
             style="overflow:visible"
             overflow="visible"
             id="textext-e2f429ec-3"><path
               inkscape:connector-curvature="0"
               style="stroke:none"
               d="m 2.015625,-3.296875 c 0.0625,-0.109375 0.0625,-0.171875 0.0625,-0.21875 0,-0.21875 -0.1875,-0.375 -0.40625,-0.375 -0.265625,0 -0.34375,0.21875 -0.375,0.328125 L 0.375,-0.546875 c -0.015625,0.015625 -0.046875,0.09375 -0.046875,0.109375 0,0.078125 0.21875,0.15625 0.28125,0.15625 0.046875,0 0.046875,-0.015625 0.09375,-0.125 z m 0,0"
               id="path4326" /></symbol></g></defs><g
         id="textext-e2f429ec-4"><g
           style="fill:#000000;fill-opacity:1"
           id="g4329"><use
             height="165"
             width="191.33858"
             xlink:href="#textext-e2f429ec-1"
             x="223.43201"
             y="134.765"
             id="use4331" /></g><g
           style="fill:#000000;fill-opacity:1"
           id="g4333"><use
             height="165"
             width="191.33858"
             xlink:href="#textext-e2f429ec-3"
             x="228.41299"
             y="131.14999"
             id="use4335" /><use
             height="165"
             width="191.33858"
             xlink:href="#textext-e2f429ec-3"
             x="230.71017"
             y="131.14999"
             id="use4337" /></g></g></g><g
       id="g4487"
       transform="matrix(0.65521309,0,0,-0.65515079,-88.893734,190.11624)"
       ns0:preamble=""
       ns0:text="$4\'\'$"><defs
         id="defs4489"><g
           id="g4491"><symbol
             id="textext-785d23ee-0"
             overflow="visible"
             style="overflow:visible"><path
               id="path4494"
               d=""
               style="stroke:none"
               inkscape:connector-curvature="0" /></symbol><symbol
             id="textext-785d23ee-1"
             overflow="visible"
             style="overflow:visible"><path
               id="path4497"
               d="m 2.9375,-1.640625 0,0.859375 c 0,0.359375 -0.03125,0.46875 -0.765625,0.46875 l -0.203125,0 0,0.3125 C 2.375,-0.03125 2.890625,-0.03125 3.3125,-0.03125 c 0.421875,0 0.9375,0 1.359375,0.03125 l 0,-0.3125 -0.21875,0 c -0.734375,0 -0.75,-0.109375 -0.75,-0.46875 l 0,-0.859375 0.984375,0 0,-0.3125 -0.984375,0 0,-4.53125 c 0,-0.203125 0,-0.265625 -0.171875,-0.265625 -0.078125,0 -0.109375,0 -0.1875,0.125 l -3.0625,4.671875 0,0.3125 z m 0.046875,-0.3125 -2.421875,0 2.421875,-3.71875 z m 0,0"
               style="stroke:none"
               inkscape:connector-curvature="0" /></symbol><symbol
             id="textext-785d23ee-2"
             overflow="visible"
             style="overflow:visible"><path
               id="path4500"
               d=""
               style="stroke:none"
               inkscape:connector-curvature="0" /></symbol><symbol
             id="textext-785d23ee-3"
             overflow="visible"
             style="overflow:visible"><path
               id="path4503"
               d="m 2.015625,-3.296875 c 0.0625,-0.109375 0.0625,-0.171875 0.0625,-0.21875 0,-0.21875 -0.1875,-0.375 -0.40625,-0.375 -0.265625,0 -0.34375,0.21875 -0.375,0.328125 L 0.375,-0.546875 c -0.015625,0.015625 -0.046875,0.09375 -0.046875,0.109375 0,0.078125 0.21875,0.15625 0.28125,0.15625 0.046875,0 0.046875,-0.015625 0.09375,-0.125 z m 0,0"
               style="stroke:none"
               inkscape:connector-curvature="0" /></symbol></g></defs><g
         id="textext-785d23ee-4"><g
           id="g4506"
           style="fill:#000000;fill-opacity:1"><use
             id="use4508"
             y="134.765"
             x="223.43201"
             xlink:href="#textext-785d23ee-1"
             width="191.33858"
             height="165" /></g><g
           id="g4510"
           style="fill:#000000;fill-opacity:1"><use
             id="use4512"
             y="131.14999"
             x="228.41299"
             xlink:href="#textext-785d23ee-3"
             width="191.33858"
             height="165" /><use
             id="use4514"
             y="131.14999"
             x="230.71017"
             xlink:href="#textext-785d23ee-3"
             width="191.33858"
             height="165" /></g></g></g><g
       id="g4589"
       ns0:preamble=""
       ns0:text="$2\'\'$"
       transform="matrix(0.65521309,0,0,-0.65515079,-88.645841,160.45656)"><defs
         id="defs4591"><g
           id="g4593"><symbol
             id="symbol4595"
             overflow="visible"
             style="overflow:visible"><path
               id="path4597"
               d=""
               style="stroke:none"
               inkscape:connector-curvature="0" /></symbol><symbol
             id="symbol4599"
             overflow="visible"
             style="overflow:visible"><path
               id="path4601"
               d="m 1.265625,-0.765625 1.0625,-1.03125 c 1.546875,-1.375 2.140625,-1.90625 2.140625,-2.90625 0,-1.140625 -0.890625,-1.9375 -2.109375,-1.9375 -1.125,0 -1.859375,0.921875 -1.859375,1.8125 0,0.546875 0.5,0.546875 0.53125,0.546875 0.171875,0 0.515625,-0.109375 0.515625,-0.53125 0,-0.25 -0.1875,-0.515625 -0.53125,-0.515625 -0.078125,0 -0.09375,0 -0.125,0.015625 0.21875,-0.65625 0.765625,-1.015625 1.34375,-1.015625 0.90625,0 1.328125,0.8125 1.328125,1.625 C 3.5625,-3.90625 3.078125,-3.125 2.515625,-2.5 l -1.90625,2.125 C 0.5,-0.265625 0.5,-0.234375 0.5,0 l 3.703125,0 0.265625,-1.734375 -0.234375,0 C 4.171875,-1.4375 4.109375,-1 4,-0.84375 3.9375,-0.765625 3.28125,-0.765625 3.0625,-0.765625 z m 0,0"
               style="stroke:none"
               inkscape:connector-curvature="0" /></symbol><symbol
             id="symbol4603"
             overflow="visible"
             style="overflow:visible"><path
               id="path4605"
               d=""
               style="stroke:none"
               inkscape:connector-curvature="0" /></symbol><symbol
             id="symbol4607"
             overflow="visible"
             style="overflow:visible"><path
               id="path4609"
               d="m 2.015625,-3.296875 c 0.0625,-0.109375 0.0625,-0.171875 0.0625,-0.21875 0,-0.21875 -0.1875,-0.375 -0.40625,-0.375 -0.265625,0 -0.34375,0.21875 -0.375,0.328125 L 0.375,-0.546875 c -0.015625,0.015625 -0.046875,0.09375 -0.046875,0.109375 0,0.078125 0.21875,0.15625 0.28125,0.15625 0.046875,0 0.046875,-0.015625 0.09375,-0.125 z m 0,0"
               style="stroke:none"
               inkscape:connector-curvature="0" /></symbol></g></defs><g
         id="g4611"><g
           id="g4613"
           style="fill:#000000;fill-opacity:1"><use
             id="use4615"
             y="134.765"
             x="223.43201"
             xlink:href="#textext-e2f429ec-1"
             width="191.33858"
             height="165" /></g><g
           id="g4617"
           style="fill:#000000;fill-opacity:1"><use
             id="use4619"
             y="131.14999"
             x="228.41299"
             xlink:href="#textext-e2f429ec-3"
             width="191.33858"
             height="165" /><use
             id="use4621"
             y="131.14999"
             x="230.71017"
             xlink:href="#textext-e2f429ec-3"
             width="191.33858"
             height="165" /></g></g></g><g
       transform="matrix(0.65521309,0,0,-0.65515079,-65.766032,139.38762)"
       ns0:text="$2\'\'$"
       ns0:preamble=""
       id="g4623"><defs
         id="defs4625"><g
           id="g4627"><symbol
             style="overflow:visible"
             overflow="visible"
             id="symbol4629"><path
               inkscape:connector-curvature="0"
               style="stroke:none"
               d=""
               id="path4631" /></symbol><symbol
             style="overflow:visible"
             overflow="visible"
             id="symbol4633"><path
               inkscape:connector-curvature="0"
               style="stroke:none"
               d="m 1.265625,-0.765625 1.0625,-1.03125 c 1.546875,-1.375 2.140625,-1.90625 2.140625,-2.90625 0,-1.140625 -0.890625,-1.9375 -2.109375,-1.9375 -1.125,0 -1.859375,0.921875 -1.859375,1.8125 0,0.546875 0.5,0.546875 0.53125,0.546875 0.171875,0 0.515625,-0.109375 0.515625,-0.53125 0,-0.25 -0.1875,-0.515625 -0.53125,-0.515625 -0.078125,0 -0.09375,0 -0.125,0.015625 0.21875,-0.65625 0.765625,-1.015625 1.34375,-1.015625 0.90625,0 1.328125,0.8125 1.328125,1.625 C 3.5625,-3.90625 3.078125,-3.125 2.515625,-2.5 l -1.90625,2.125 C 0.5,-0.265625 0.5,-0.234375 0.5,0 l 3.703125,0 0.265625,-1.734375 -0.234375,0 C 4.171875,-1.4375 4.109375,-1 4,-0.84375 3.9375,-0.765625 3.28125,-0.765625 3.0625,-0.765625 z m 0,0"
               id="path4635" /></symbol><symbol
             style="overflow:visible"
             overflow="visible"
             id="symbol4637"><path
               inkscape:connector-curvature="0"
               style="stroke:none"
               d=""
               id="path4639" /></symbol><symbol
             style="overflow:visible"
             overflow="visible"
             id="symbol4641"><path
               inkscape:connector-curvature="0"
               style="stroke:none"
               d="m 2.015625,-3.296875 c 0.0625,-0.109375 0.0625,-0.171875 0.0625,-0.21875 0,-0.21875 -0.1875,-0.375 -0.40625,-0.375 -0.265625,0 -0.34375,0.21875 -0.375,0.328125 L 0.375,-0.546875 c -0.015625,0.015625 -0.046875,0.09375 -0.046875,0.109375 0,0.078125 0.21875,0.15625 0.28125,0.15625 0.046875,0 0.046875,-0.015625 0.09375,-0.125 z m 0,0"
               id="path4643" /></symbol></g></defs><g
         id="g4645"><g
           style="fill:#000000;fill-opacity:1"
           id="g4647"><use
             height="165"
             width="191.33858"
             xlink:href="#textext-e2f429ec-1"
             x="223.43201"
             y="134.765"
             id="use4649" /></g><g
           style="fill:#000000;fill-opacity:1"
           id="g4651"><use
             height="165"
             width="191.33858"
             xlink:href="#textext-e2f429ec-3"
             x="228.41299"
             y="131.14999"
             id="use4653" /><use
             height="165"
             width="191.33858"
             xlink:href="#textext-e2f429ec-3"
             x="230.71017"
             y="131.14999"
             id="use4655" /></g></g></g><g
       ns0:text="$1\'\'$"
       ns0:preamble=""
       transform="matrix(0.65521309,0,0,-0.65515079,-88.991389,111.03295)"
       id="g4800"><defs
         id="defs4802"><g
           id="g4804"><symbol
             style="overflow:visible"
             overflow="visible"
             id="textext-eab83cea-0"><path
               inkscape:connector-curvature="0"
               style="stroke:none"
               d=""
               id="path4807" /></symbol><symbol
             style="overflow:visible"
             overflow="visible"
             id="textext-eab83cea-1"><path
               inkscape:connector-curvature="0"
               style="stroke:none"
               d="m 2.9375,-6.375 c 0,-0.25 0,-0.265625 -0.234375,-0.265625 C 2.078125,-6 1.203125,-6 0.890625,-6 l 0,0.3125 c 0.203125,0 0.78125,0 1.296875,-0.265625 l 0,5.171875 c 0,0.359375 -0.03125,0.46875 -0.921875,0.46875 l -0.3125,0 0,0.3125 c 0.34375,-0.03125 1.203125,-0.03125 1.609375,-0.03125 0.390625,0 1.265625,0 1.609375,0.03125 l 0,-0.3125 -0.3125,0 c -0.90625,0 -0.921875,-0.109375 -0.921875,-0.46875 z m 0,0"
               id="path4810" /></symbol><symbol
             style="overflow:visible"
             overflow="visible"
             id="textext-eab83cea-2"><path
               inkscape:connector-curvature="0"
               style="stroke:none"
               d=""
               id="path4813" /></symbol><symbol
             style="overflow:visible"
             overflow="visible"
             id="textext-eab83cea-3"><path
               inkscape:connector-curvature="0"
               style="stroke:none"
               d="m 2.015625,-3.296875 c 0.0625,-0.109375 0.0625,-0.171875 0.0625,-0.21875 0,-0.21875 -0.1875,-0.375 -0.40625,-0.375 -0.265625,0 -0.34375,0.21875 -0.375,0.328125 L 0.375,-0.546875 c -0.015625,0.015625 -0.046875,0.09375 -0.046875,0.109375 0,0.078125 0.21875,0.15625 0.28125,0.15625 0.046875,0 0.046875,-0.015625 0.09375,-0.125 z m 0,0"
               id="path4816" /></symbol></g></defs><g
         id="textext-eab83cea-4"><g
           style="fill:#000000;fill-opacity:1"
           id="g4819"><use
             height="165"
             width="191.33858"
             xlink:href="#textext-eab83cea-1"
             x="223.43201"
             y="134.765"
             id="use4821" /></g><g
           style="fill:#000000;fill-opacity:1"
           id="g4823"><use
             height="165"
             width="191.33858"
             xlink:href="#textext-eab83cea-3"
             x="228.41299"
             y="131.14999"
             id="use4825" /><use
             height="165"
             width="191.33858"
             xlink:href="#textext-eab83cea-3"
             x="230.71017"
             y="131.14999"
             id="use4827" /></g></g></g><g
       id="g4953"
       transform="matrix(0.65521309,0,0,-0.65515079,-114.76779,141.40663)"
       ns0:preamble=""
       ns0:text="$1\'\'$"><defs
         id="defs4955"><g
           id="g4957"><symbol
             id="symbol4959"
             overflow="visible"
             style="overflow:visible"><path
               id="path4961"
               d=""
               style="stroke:none"
               inkscape:connector-curvature="0" /></symbol><symbol
             id="symbol4963"
             overflow="visible"
             style="overflow:visible"><path
               id="path4965"
               d="m 2.9375,-6.375 c 0,-0.25 0,-0.265625 -0.234375,-0.265625 C 2.078125,-6 1.203125,-6 0.890625,-6 l 0,0.3125 c 0.203125,0 0.78125,0 1.296875,-0.265625 l 0,5.171875 c 0,0.359375 -0.03125,0.46875 -0.921875,0.46875 l -0.3125,0 0,0.3125 c 0.34375,-0.03125 1.203125,-0.03125 1.609375,-0.03125 0.390625,0 1.265625,0 1.609375,0.03125 l 0,-0.3125 -0.3125,0 c -0.90625,0 -0.921875,-0.109375 -0.921875,-0.46875 z m 0,0"
               style="stroke:none"
               inkscape:connector-curvature="0" /></symbol><symbol
             id="symbol4967"
             overflow="visible"
             style="overflow:visible"><path
               id="path4969"
               d=""
               style="stroke:none"
               inkscape:connector-curvature="0" /></symbol><symbol
             id="symbol4971"
             overflow="visible"
             style="overflow:visible"><path
               id="path4973"
               d="m 2.015625,-3.296875 c 0.0625,-0.109375 0.0625,-0.171875 0.0625,-0.21875 0,-0.21875 -0.1875,-0.375 -0.40625,-0.375 -0.265625,0 -0.34375,0.21875 -0.375,0.328125 L 0.375,-0.546875 c -0.015625,0.015625 -0.046875,0.09375 -0.046875,0.109375 0,0.078125 0.21875,0.15625 0.28125,0.15625 0.046875,0 0.046875,-0.015625 0.09375,-0.125 z m 0,0"
               style="stroke:none"
               inkscape:connector-curvature="0" /></symbol></g></defs><g
         id="g4975"><g
           id="g4977"
           style="fill:#000000;fill-opacity:1"><use
             id="use4979"
             y="134.765"
             x="223.43201"
             xlink:href="#textext-eab83cea-1"
             width="191.33858"
             height="165" /></g><g
           id="g4981"
           style="fill:#000000;fill-opacity:1"><use
             id="use4983"
             y="131.14999"
             x="228.41299"
             xlink:href="#textext-eab83cea-3"
             width="191.33858"
             height="165" /><use
             id="use4985"
             y="131.14999"
             x="230.71017"
             xlink:href="#textext-eab83cea-3"
             width="191.33858"
             height="165" /></g></g></g><g
       id="g5164"
       transform="matrix(0.65521309,0,0,-0.65515079,-131.10472,144.27106)"
       ns0:preamble=""
       ns0:text="$5\'\'$"><defs
         id="defs5166"><g
           id="g5168"><symbol
             id="textext-794447dd-0"
             overflow="visible"
             style="overflow:visible"><path
               id="path5171"
               d=""
               style="stroke:none"
               inkscape:connector-curvature="0" /></symbol><symbol
             id="textext-794447dd-1"
             overflow="visible"
             style="overflow:visible"><path
               id="path5174"
               d="m 4.46875,-2 c 0,-1.1875 -0.8125,-2.1875 -1.890625,-2.1875 -0.46875,0 -0.90625,0.15625 -1.265625,0.515625 l 0,-1.953125 c 0.203125,0.0625 0.53125,0.125 0.84375,0.125 1.234375,0 1.9375,-0.90625 1.9375,-1.03125 0,-0.0625 -0.03125,-0.109375 -0.109375,-0.109375 0,0 -0.03125,0 -0.078125,0.03125 C 3.703125,-6.515625 3.21875,-6.3125 2.546875,-6.3125 2.15625,-6.3125 1.6875,-6.390625 1.21875,-6.59375 1.140625,-6.625 1.125,-6.625 1.109375,-6.625 1,-6.625 1,-6.546875 1,-6.390625 L 1,-3.4375 c 0,0.171875 0,0.25 0.140625,0.25 0.078125,0 0.09375,-0.015625 0.140625,-0.078125 C 1.390625,-3.421875 1.75,-3.96875 2.5625,-3.96875 c 0.515625,0 0.765625,0.453125 0.84375,0.640625 0.15625,0.375 0.1875,0.75 0.1875,1.25 0,0.359375 0,0.953125 -0.25,1.375 C 3.109375,-0.3125 2.734375,-0.0625 2.28125,-0.0625 c -0.71875,0 -1.296875,-0.53125 -1.46875,-1.109375 0.03125,0 0.0625,0.015625 0.171875,0.015625 0.328125,0 0.5,-0.25 0.5,-0.484375 0,-0.25 -0.171875,-0.5 -0.5,-0.5 C 0.84375,-2.140625 0.5,-2.0625 0.5,-1.609375 0.5,-0.75 1.1875,0.21875 2.296875,0.21875 3.453125,0.21875 4.46875,-0.734375 4.46875,-2 z m 0,0"
               style="stroke:none"
               inkscape:connector-curvature="0" /></symbol><symbol
             id="textext-794447dd-2"
             overflow="visible"
             style="overflow:visible"><path
               id="path5177"
               d=""
               style="stroke:none"
               inkscape:connector-curvature="0" /></symbol><symbol
             id="textext-794447dd-3"
             overflow="visible"
             style="overflow:visible"><path
               id="path5180"
               d="m 2.015625,-3.296875 c 0.0625,-0.109375 0.0625,-0.171875 0.0625,-0.21875 0,-0.21875 -0.1875,-0.375 -0.40625,-0.375 -0.265625,0 -0.34375,0.21875 -0.375,0.328125 L 0.375,-0.546875 c -0.015625,0.015625 -0.046875,0.09375 -0.046875,0.109375 0,0.078125 0.21875,0.15625 0.28125,0.15625 0.046875,0 0.046875,-0.015625 0.09375,-0.125 z m 0,0"
               style="stroke:none"
               inkscape:connector-curvature="0" /></symbol></g></defs><g
         id="textext-794447dd-4"><g
           id="g5183"
           style="fill:#000000;fill-opacity:1"><use
             id="use5185"
             y="134.765"
             x="223.43201"
             xlink:href="#textext-794447dd-1"
             width="191.33858"
             height="165" /></g><g
           id="g5187"
           style="fill:#000000;fill-opacity:1"><use
             id="use5189"
             y="131.14999"
             x="228.41299"
             xlink:href="#textext-794447dd-3"
             width="191.33858"
             height="165" /><use
             id="use5191"
             y="131.14999"
             x="230.71017"
             xlink:href="#textext-794447dd-3"
             width="191.33858"
             height="165" /></g></g></g></g></svg>